<?xml version="1.0" encoding="UTF-8"?>
<svg xmlns="http://www.w3.org/2000/svg" width="3000" height="1000" viewBox="0 0 3000 1000">
  <title>ASUKA ONE exact editable vector logo</title>
  <desc>Vector trace from the approved logo with separated icon and wordmark groups, plus navy, teal, and orange editable color layers.</desc>
  <rect id="background" width="3000" height="1000" fill="#FFFFFF"/>
  <g id="asuka-one-logo" transform="translate(240.000 182.212) scale(0.929203540)">
    <g id="icon" transform="translate(0 0)">
<g id="icon-navy"><g fill="#092743" stroke="none" transform="translate(0.000000,684.000000) scale(0.100000,-0.100000)">
<path d="M2907 6200 l-339 -5 -19 -25 c-11 -14 -26 -34 -34 -45 -8 -10 -15
-26 -15 -36 0 -9 -9 -26 -20 -39 -11 -13 -20 -33 -20 -45 0 -13 -7 -28 -15
-35 -8 -7 -17 -27 -21 -45 -3 -19 -12 -36 -19 -39 -7 -2 -15 -20 -19 -39 -4
-19 -13 -40 -21 -47 -8 -7 -17 -27 -21 -46 -3 -18 -12 -38 -20 -45 -8 -6 -14
-16 -14 -23 0 -11 -34 -87 -71 -158 -10 -20 -19 -43 -19 -51 0 -8 -6 -20 -14
-26 -8 -7 -18 -25 -21 -41 -3 -16 -13 -34 -20 -40 -8 -7 -17 -27 -21 -45 -3
-19 -12 -36 -19 -39 -7 -2 -15 -20 -19 -39 -4 -19 -13 -40 -21 -47 -8 -7 -15
-18 -15 -26 0 -7 -11 -33 -23 -57 -13 -24 -27 -53 -30 -63 -4 -11 -11 -26 -16
-34 -5 -8 -21 -42 -36 -75 -15 -33 -35 -77 -46 -97 -10 -20 -19 -42 -19 -48 0
-7 -9 -23 -20 -37 -11 -14 -20 -34 -20 -43 0 -10 -6 -23 -14 -29 -8 -7 -17
-24 -21 -38 -3 -15 -15 -38 -26 -51 -10 -14 -19 -32 -19 -42 0 -9 -9 -25 -19
-34 -11 -10 -17 -25 -14 -36 7 -25 -26 -40 -38 -18 -5 9 -33 32 -62 51 -30 20
-58 42 -63 49 -14 19 -5 208 9 208 7 0 38 18 70 40 31 22 62 40 68 40 17 0 89
62 89 77 0 7 7 16 15 19 8 4 15 16 15 29 0 12 9 32 20 45 24 27 35 63 26 85
-7 19 -60 20 -75 1 -7 -8 -27 -17 -45 -20 -19 -4 -39 -13 -46 -21 -7 -8 -20
-15 -30 -15 -9 0 -29 -9 -43 -20 -14 -11 -35 -20 -46 -20 -12 0 -29 -9 -38
-20 -18 -20 -43 -27 -43 -11 0 5 7 14 15 21 8 7 29 40 46 74 17 33 37 68 45
77 8 8 14 20 14 25 0 5 18 35 40 67 22 31 40 60 40 63 0 4 17 27 38 53 21 25
51 66 67 91 46 69 272 292 343 337 60 39 121 111 122 143 0 8 9 29 20 45 11
17 20 38 20 47 0 9 9 23 21 31 15 11 20 23 17 48 l-3 34 -65 -3 c-38 -2 -80
-11 -103 -23 -21 -10 -48 -19 -60 -19 -12 0 -39 -9 -60 -20 -20 -11 -47 -20
-59 -20 -13 0 -36 -9 -53 -20 -16 -11 -40 -20 -51 -20 -12 0 -33 -9 -47 -20
-14 -11 -34 -20 -45 -20 -10 0 -31 -9 -45 -20 -14 -11 -32 -20 -40 -20 -8 0
-25 -8 -38 -18 -13 -10 -35 -23 -49 -30 -14 -7 -43 -23 -65 -37 -22 -13 -53
-31 -70 -40 -52 -27 -74 -41 -93 -58 -10 -10 -24 -17 -30 -17 -6 0 -22 -10
-36 -22 -14 -13 -35 -31 -48 -40 -191 -145 -429 -373 -513 -492 -11 -16 -30
-40 -42 -55 -13 -14 -28 -32 -35 -40 -23 -28 -133 -196 -145 -223 -7 -16 -17
-28 -22 -28 -5 0 -12 -13 -16 -29 -3 -16 -12 -35 -20 -41 -8 -6 -17 -24 -20
-40 -3 -16 -13 -34 -20 -40 -8 -7 -17 -27 -21 -45 -3 -19 -12 -36 -20 -39 -8
-3 -14 -13 -14 -23 0 -10 -12 -40 -25 -68 -14 -27 -25 -60 -25 -71 0 -12 -7
-27 -15 -34 -7 -6 -17 -33 -21 -58 -3 -26 -13 -57 -21 -70 -8 -13 -17 -46 -20
-75 -3 -29 -12 -64 -19 -79 -8 -14 -16 -53 -20 -85 -3 -32 -14 -83 -24 -113
-10 -30 -16 -67 -13 -81 4 -23 -1 -29 -42 -49 -58 -28 -140 -111 -156 -157 -7
-21 -10 -73 -7 -127 3 -77 7 -96 28 -125 36 -50 118 -125 143 -131 18 -5 23
-15 28 -61 3 -31 13 -75 22 -100 9 -24 18 -68 22 -98 3 -30 13 -67 21 -82 7
-15 14 -43 14 -61 0 -18 9 -53 20 -77 11 -24 20 -51 20 -60 0 -9 9 -34 20 -56
11 -21 23 -54 26 -72 3 -18 12 -37 20 -44 8 -6 14 -22 14 -34 0 -12 9 -34 20
-48 11 -14 20 -32 20 -40 0 -9 8 -23 18 -33 9 -10 22 -31 27 -48 8 -23 17 -32
38 -34 36 -4 53 10 68 56 7 20 20 48 30 61 25 31 24 72 -1 104 -11 14 -20 31
-20 39 0 7 -9 27 -19 44 -10 17 -22 46 -26 65 -4 18 -13 43 -20 54 -7 11 -16
38 -20 59 -3 21 -13 49 -21 61 -8 13 -16 42 -18 66 -1 24 -10 58 -19 76 -21
39 -24 77 -4 53 21 -27 124 -110 135 -110 6 0 15 -6 19 -13 10 -15 86 -67 99
-67 5 0 18 -9 27 -21 14 -16 25 -19 45 -14 36 9 52 23 52 46 0 10 10 27 21 38
14 13 22 33 23 58 1 35 -2 38 -37 50 -21 7 -45 20 -53 28 -9 8 -21 15 -28 15
-7 0 -21 9 -31 20 -10 11 -22 20 -27 20 -8 0 -21 11 -80 67 -113 107 -127 136
-93 187 88 130 87 270 -5 376 -24 28 -21 59 10 102 11 15 20 31 20 36 0 5 17
31 38 58 20 27 48 65 62 86 48 71 222 256 347 371 77 70 143 74 109 6 -9 -19
-19 -61 -22 -94 -3 -33 -12 -80 -20 -105 -7 -25 -18 -95 -23 -156 -6 -61 -15
-131 -21 -155 -6 -27 -10 -124 -8 -249 l3 -205 24 -3 c51 -8 69 5 76 53 4 24
13 50 21 56 8 6 14 17 14 24 0 7 11 24 25 39 14 15 25 35 25 45 0 10 7 35 15
54 10 24 17 89 21 199 3 90 12 190 20 223 8 33 19 100 23 149 8 82 11 90 42
121 48 46 106 54 147 20 17 -14 34 -25 39 -25 5 0 16 -8 25 -17 9 -10 35 -33
57 -52 38 -34 39 -35 25 -62 -8 -16 -14 -34 -14 -42 0 -8 -6 -20 -14 -26 -8
-7 -18 -27 -22 -44 -3 -18 -15 -43 -25 -56 -11 -13 -19 -32 -19 -41 0 -10 -6
-23 -14 -29 -8 -7 -18 -25 -21 -41 -3 -16 -12 -34 -20 -40 -7 -6 -16 -26 -19
-44 -4 -19 -13 -39 -21 -46 -7 -6 -17 -24 -20 -40 -3 -16 -12 -34 -20 -40 -7
-6 -16 -26 -19 -44 -4 -19 -13 -39 -21 -46 -8 -7 -15 -17 -15 -23 0 -5 -11
-33 -24 -61 -13 -28 -37 -78 -52 -111 -16 -33 -34 -66 -41 -73 -7 -7 -13 -23
-13 -34 0 -11 -9 -31 -20 -45 -11 -14 -20 -34 -20 -43 0 -10 -6 -23 -14 -29
-8 -7 -18 -27 -22 -44 -3 -17 -15 -43 -26 -58 -13 -16 -18 -38 -16 -59 3 -30
7 -34 53 -46 60 -16 155 -17 210 -4 22 6 88 15 146 20 59 5 119 17 135 25 16
8 45 15 64 15 19 0 52 9 73 20 20 11 49 20 65 20 15 0 44 9 65 20 20 11 47 20
59 20 13 0 34 7 48 15 14 8 35 19 48 24 12 6 27 22 32 36 5 14 14 25 19 25 5
0 12 15 15 34 4 19 13 39 20 45 8 7 17 24 20 39 7 26 30 80 67 154 11 20 19
46 19 56 0 11 6 25 14 31 8 6 19 32 25 56 10 38 15 45 36 45 14 0 28 -7 31
-15 3 -8 16 -17 27 -21 12 -4 43 -24 68 -45 26 -22 50 -39 53 -39 4 0 31 -19
61 -43 51 -41 53 -43 53 -94 0 -28 5 -60 11 -70 8 -16 4 -24 -24 -46 -19 -15
-43 -27 -53 -27 -11 0 -31 -9 -45 -20 -14 -11 -34 -20 -45 -20 -10 0 -29 -9
-42 -20 -13 -11 -30 -20 -39 -20 -9 0 -30 -9 -47 -19 -17 -10 -45 -22 -62 -25
-17 -4 -36 -14 -43 -22 -6 -8 -24 -14 -39 -14 -15 0 -38 -8 -51 -19 -13 -10
-40 -21 -60 -25 -21 -4 -42 -13 -49 -21 -7 -8 -24 -15 -39 -15 -14 0 -39 -9
-56 -20 -16 -11 -43 -20 -60 -20 -16 0 -45 -9 -63 -20 -18 -11 -48 -20 -68
-20 -19 0 -56 -9 -82 -19 -26 -11 -84 -22 -129 -25 -46 -4 -95 -11 -110 -17
-52 -20 -174 -22 -241 -5 -35 9 -83 16 -108 16 -49 0 -38 13 -117 -141 -21
-41 -42 -81 -47 -89 -22 -40 -60 -123 -60 -132 0 -5 -9 -21 -20 -35 -11 -14
-20 -36 -20 -48 0 -12 -6 -28 -14 -34 -8 -7 -18 -25 -21 -41 -3 -16 -13 -34
-20 -40 -8 -7 -17 -27 -21 -45 -3 -19 -12 -36 -19 -39 -7 -2 -15 -20 -19 -39
-4 -19 -13 -40 -21 -47 -8 -7 -15 -20 -15 -30 0 -9 -9 -29 -20 -43 -11 -14
-20 -32 -20 -41 0 -9 -9 -25 -19 -35 -10 -10 -22 -33 -26 -49 -3 -17 -13 -36
-21 -43 -8 -6 -14 -16 -14 -22 0 -12 -41 -105 -70 -159 -11 -20 -20 -42 -20
-48 0 -7 -9 -23 -20 -37 -11 -14 -20 -35 -20 -45 0 -11 -9 -31 -20 -45 -11
-14 -20 -32 -20 -40 0 -8 -9 -26 -20 -40 -11 -14 -20 -36 -20 -48 0 -13 -6
-25 -14 -28 -7 -3 -17 -22 -20 -42 -4 -20 -13 -38 -21 -41 -7 -3 -16 -20 -19
-39 -4 -18 -13 -38 -21 -45 -8 -7 -15 -19 -15 -27 0 -8 -9 -31 -19 -51 -41
-78 -71 -142 -71 -153 0 -6 -9 -22 -20 -36 -11 -14 -20 -32 -20 -40 0 -7 -9
-26 -19 -41 -28 -40 -34 -78 -15 -96 14 -14 72 -16 497 -16 265 0 492 3 505 6
13 4 25 17 29 33 3 14 14 42 25 61 10 19 18 42 18 51 0 9 6 22 14 28 8 7 17
27 20 45 4 19 13 39 21 46 8 7 15 18 15 25 0 6 11 33 25 59 14 26 25 55 25 65
0 10 7 24 15 31 8 7 17 27 21 45 3 19 12 36 19 39 8 3 17 21 20 40 4 19 13 40
21 47 8 6 14 19 14 28 0 9 11 37 25 63 14 26 25 56 25 66 0 11 7 25 15 32 8 7
15 20 15 29 0 9 8 32 19 51 10 19 23 51 30 71 15 47 47 75 95 82 21 3 46 13
56 22 9 8 28 15 41 15 13 0 41 9 62 20 20 11 47 20 59 20 13 0 37 9 53 20 17
11 42 20 56 20 15 0 37 8 50 18 13 11 39 22 58 26 19 3 42 12 50 20 9 7 31 16
49 19 18 4 40 14 48 22 9 8 26 15 38 15 13 0 34 8 47 19 13 10 40 21 61 25 20
4 39 13 42 21 3 8 14 15 24 15 11 0 31 9 45 20 14 11 34 20 45 20 10 0 31 9
45 20 14 11 34 20 45 20 10 0 30 8 43 19 13 10 38 22 56 25 17 4 37 13 43 21
6 7 26 16 44 19 19 4 39 13 46 21 7 8 20 15 30 15 9 0 28 8 41 19 13 10 38 22
56 25 17 4 34 14 37 22 3 8 17 14 31 14 14 0 33 9 42 20 10 11 28 20 40 20 12
0 30 8 40 19 10 10 32 22 50 25 17 4 34 14 37 22 3 8 14 14 24 14 11 0 30 9
44 19 13 11 36 23 51 26 14 4 28 13 30 20 3 7 22 15 41 19 20 4 36 11 36 16 0
15 22 12 42 -7 24 -22 30 -13 14 19 -8 14 -19 43 -26 63 -7 22 -39 63 -79 103
-37 37 -76 80 -86 95 -22 34 -114 97 -142 97 -12 0 -23 8 -26 20 -3 11 -12 20
-21 20 -13 0 -15 -4 -7 -19 6 -10 17 -21 26 -25 28 -10 15 -26 -23 -26 -21 0
-55 -9 -77 -20 -22 -11 -54 -20 -73 -20 -18 0 -54 -9 -80 -19 -26 -11 -68 -22
-95 -25 -26 -3 -57 -12 -70 -20 -12 -7 -47 -16 -79 -19 -31 -3 -67 -12 -80
-20 -12 -8 -53 -17 -90 -20 -37 -4 -80 -13 -95 -20 -15 -8 -59 -17 -98 -20
-38 -3 -86 -12 -105 -20 -19 -8 -75 -17 -123 -20 -62 -3 -93 -9 -106 -21 -20
-18 -41 -21 -41 -5 0 18 34 69 46 69 6 0 22 8 35 18 13 11 41 22 62 25 20 3
44 13 53 21 8 9 28 16 43 16 16 0 40 9 54 20 14 11 36 20 50 20 13 0 36 9 50
20 14 11 33 20 44 20 10 0 32 9 49 19 17 10 45 22 61 25 17 4 34 13 36 20 3 8
21 16 40 20 19 4 38 13 41 21 3 8 14 15 24 15 11 0 30 8 43 19 13 10 39 22 56
25 18 4 35 12 39 17 3 5 35 -6 72 -25 86 -43 149 -58 193 -46 19 6 51 10 71
10 39 0 51 14 21 24 -25 8 -97 -2 -101 -14 -7 -18 -61 -11 -72 10 -6 10 -25
22 -44 25 -18 4 -45 15 -61 25 -22 14 -34 16 -63 8 -26 -7 -37 -7 -40 1 -2 6
-8 8 -13 5 -6 -3 -16 -1 -23 5 -10 8 -16 8 -25 -3 -20 -24 -64 -13 -73 19 -9
34 10 58 35 43 15 -8 17 -4 17 27 0 20 4 34 8 31 53 -33 46 192 -8 236 -11 9
-20 19 -20 24 0 4 -6 12 -14 18 -8 6 -17 25 -21 42 -5 26 -3 32 14 37 12 3 23
1 26 -4 4 -5 27 -8 52 -6 40 2 48 -1 52 -18 4 -13 14 -20 26 -18 50 4 117 22
140 37 21 14 39 16 95 10 39 -4 75 -13 81 -20 6 -8 22 -14 35 -14 15 0 24 -6
24 -15 0 -22 44 -19 65 5 10 11 26 20 37 20 10 0 18 4 18 9 0 5 10 13 22 17
12 4 31 17 41 30 10 13 25 24 33 24 8 0 23 9 34 20 12 12 25 18 29 15 5 -2 16
6 25 20 9 14 25 25 35 25 10 0 21 7 25 15 3 8 14 15 24 15 10 0 28 11 40 25
12 14 29 25 37 25 8 0 15 4 15 10 0 5 11 12 24 16 13 3 34 17 47 30 12 13 26
24 31 24 4 0 16 7 26 15 9 9 37 34 62 55 24 22 52 42 61 45 9 3 20 12 23 20 7
19 -23 8 -50 -19 -40 -39 -106 -91 -128 -99 -11 -5 -24 -15 -29 -23 -4 -8 -14
-14 -21 -14 -7 0 -21 -9 -31 -20 -10 -11 -23 -20 -30 -20 -7 0 -20 -9 -30 -20
-10 -11 -23 -20 -30 -20 -7 0 -20 -9 -30 -20 -10 -11 -23 -20 -30 -20 -7 0
-20 -9 -30 -20 -10 -11 -23 -20 -30 -20 -7 0 -20 -9 -30 -20 -10 -11 -23 -20
-30 -20 -7 0 -20 -9 -30 -20 -10 -11 -23 -20 -30 -20 -7 0 -20 -9 -30 -20 -10
-11 -25 -20 -33 -20 -8 0 -30 -10 -49 -21 l-34 -21 -23 21 c-12 11 -27 21 -32
21 -5 0 -27 9 -49 20 -51 26 -119 26 -169 -1 -53 -28 -109 -29 -139 -1 -13 12
-27 22 -32 22 -4 0 -15 7 -24 15 -33 31 -79 65 -88 65 -6 0 -18 9 -28 20 -10
11 -23 20 -28 20 -6 0 -17 7 -26 15 -9 8 -26 23 -38 35 -26 23 -31 75 -9 83 8
3 17 24 21 46 4 22 13 45 20 51 8 6 17 26 21 43 4 18 15 48 25 67 11 19 19 42
19 51 0 9 7 22 15 29 8 7 15 18 15 24 0 6 11 34 25 61 13 28 25 56 25 63 0 8
9 25 20 39 11 14 20 36 20 48 0 12 6 28 14 34 8 7 17 27 20 45 4 19 13 39 21
46 8 7 15 20 15 30 0 9 11 38 25 64 14 26 25 55 25 65 0 10 6 24 14 30 8 7 17
28 21 49 4 20 15 51 26 68 10 17 19 40 19 51 0 12 7 26 15 33 8 7 15 18 15 24
0 6 5 28 11 49 12 45 39 51 39 8 0 -16 7 -34 14 -41 8 -6 20 -28 27 -48 7 -20
20 -53 30 -72 11 -19 19 -43 19 -53 0 -10 7 -20 15 -23 8 -4 15 -15 15 -26 0
-10 8 -36 19 -56 32 -63 59 -126 66 -152 4 -14 13 -32 20 -40 7 -8 16 -29 20
-47 3 -17 13 -37 21 -44 8 -6 14 -22 14 -34 0 -12 8 -33 19 -46 10 -13 22 -38
25 -56 4 -17 13 -37 21 -43 7 -6 16 -29 20 -50 4 -21 12 -41 19 -43 8 -3 16
-21 20 -40 4 -19 13 -40 21 -47 8 -7 15 -23 15 -36 0 -12 7 -30 16 -38 9 -9
20 -32 25 -51 15 -55 54 -49 145 23 40 31 90 70 111 85 45 33 108 85 134 110
11 9 22 17 25 17 3 0 20 11 38 25 17 14 41 34 53 43 38 29 76 62 126 109 53
52 60 84 27 126 -11 14 -20 34 -20 45 0 11 -6 27 -13 34 -7 7 -24 38 -39 68
-14 30 -37 80 -52 110 -14 30 -26 61 -26 69 0 7 -9 24 -20 38 -11 14 -20 34
-20 43 0 10 -7 23 -15 30 -8 7 -17 27 -21 45 -3 19 -12 36 -19 39 -8 3 -17 21
-20 40 -4 19 -13 40 -21 47 -8 6 -14 16 -14 22 0 5 -8 28 -19 51 -10 23 -24
52 -30 66 -6 14 -15 32 -20 40 -21 36 -101 206 -101 216 0 6 -7 17 -15 24 -8
7 -17 27 -21 46 -3 18 -12 38 -20 45 -7 6 -16 26 -20 44 -3 19 -12 36 -19 39
-7 2 -15 20 -19 39 -4 19 -13 40 -21 47 -8 7 -15 22 -15 35 0 12 -9 32 -20 45
-11 13 -20 31 -20 40 0 10 -9 29 -20 43 -11 14 -20 30 -20 36 0 30 -64 127
-93 143 -18 9 -34 16 -37 16 -3 -1 -157 -5 -343 -8z m-1087 -466 c0 -3 -17
-22 -37 -42 -21 -20 -51 -56 -67 -79 -16 -24 -33 -43 -37 -43 -5 0 -9 -7 -9
-15 0 -9 -6 -18 -14 -21 -7 -3 -28 -28 -46 -57 -19 -29 -47 -70 -64 -91 -28
-37 -43 -60 -81 -131 -9 -16 -27 -48 -40 -70 -14 -22 -29 -51 -35 -65 -5 -14
-14 -32 -20 -40 -5 -8 -16 -29 -24 -47 -13 -28 -19 -32 -55 -31 -23 0 -53 -4
-69 -10 -15 -6 -39 -13 -54 -16 -45 -10 -130 -104 -155 -173 -24 -64 -30 -152
-12 -170 8 -8 -5 -23 -45 -54 -94 -73 -400 -381 -429 -431 -16 -27 -30 -48
-33 -48 -11 0 10 77 27 99 11 13 19 40 19 60 0 20 9 54 20 76 11 22 20 49 20
61 0 12 6 27 14 33 8 7 17 30 21 51 4 21 13 44 21 51 8 6 14 16 14 22 0 15 89
188 106 208 8 8 14 23 14 32 0 9 4 18 9 22 11 6 71 93 71 102 0 3 11 19 25 37
14 17 32 40 41 51 72 99 114 146 218 251 67 66 171 159 231 207 61 47 117 92
125 99 8 7 26 19 40 26 14 7 43 23 65 37 22 13 52 29 68 36 15 6 27 15 27 20
0 4 17 13 39 19 21 5 44 17 51 25 12 15 40 21 40 9z"/>
<path d="M3497 6133 c-15 -14 -6 -56 18 -87 14 -18 25 -43 25 -55 0 -13 9 -34
20 -48 11 -14 20 -31 20 -38 0 -22 118 -131 201 -185 12 -8 33 -26 46 -39 13
-13 27 -21 31 -16 4 4 -3 14 -15 22 -13 9 -23 22 -23 29 0 8 -7 14 -15 14 -8
0 -15 5 -15 12 0 6 -3 8 -7 5 -3 -4 -13 2 -20 13 -8 11 -19 18 -24 15 -5 -4
-9 6 -9 21 0 15 -3 24 -7 21 -3 -4 -12 -2 -19 3 -13 12 -7 51 10 62 7 5 4 8
-6 8 -10 0 -19 -6 -19 -12 -1 -7 -5 1 -9 17 -6 23 -8 25 -9 8 0 -12 -6 -25
-13 -29 -7 -4 -8 -3 -4 4 4 7 2 12 -3 12 -6 0 -13 17 -17 38 -4 27 -21 54 -55
92 -56 59 -63 96 -19 93 66 -4 103 -13 119 -27 10 -9 35 -16 58 -16 31 0 48
-7 71 -28 18 -17 40 -28 54 -27 13 2 34 -4 47 -12 12 -8 32 -12 43 -10 12 4
26 -2 36 -14 10 -11 29 -19 47 -19 17 0 35 -3 41 -7 5 -5 1 0 -9 10 -11 9 -27
17 -36 17 -9 0 -29 9 -46 20 -16 11 -42 20 -56 20 -15 0 -32 7 -39 15 -7 8
-28 18 -48 21 -20 4 -50 15 -67 26 -16 10 -43 18 -58 18 -15 0 -45 9 -67 20
-38 19 -138 28 -153 13z"/>
<path d="M4100 5930 c0 -5 11 -10 24 -10 13 0 29 -7 36 -14 14 -18 98 -60 125
-63 12 -1 8 4 -11 12 -17 7 -36 21 -43 29 -8 9 -20 16 -28 16 -8 0 -26 9 -40
20 -27 21 -63 27 -63 10z"/>
<path d="M5107 5911 c-27 -16 -63 -43 -81 -60 -30 -29 -36 -31 -111 -31 -78 0
-192 -14 -203 -25 -3 -3 -3 -7 0 -10 8 -8 91 -10 103 -3 6 3 37 6 70 7 89 1
90 1 137 43 24 21 51 41 61 44 10 3 28 15 40 27 20 20 33 22 119 22 86 0 99
-2 120 -22 14 -13 31 -23 38 -23 8 0 28 -12 44 -27 l31 -28 -25 28 c-14 16
-38 36 -55 44 -16 9 -35 22 -43 29 -9 10 -40 14 -105 13 -82 0 -97 -3 -140
-28z"/>
<path d="M4320 5821 c0 -13 38 -33 53 -28 7 2 -3 11 -20 21 -18 9 -33 12 -33
7z"/>
<path d="M5470 5808 c0 -16 9 -29 31 -46 16 -12 16 -10 1 23 -16 35 -32 46
-32 23z"/>
<path d="M4000 5771 c0 -5 7 -14 15 -21 8 -7 15 -16 15 -21 0 -10 17 -29 115
-134 41 -44 75 -77 75 -74 0 3 -8 15 -17 27 -10 11 -29 35 -43 53 -14 17 -35
41 -47 52 -13 11 -23 25 -23 31 0 6 -9 17 -20 24 -11 7 -20 17 -20 22 0 18 29
11 42 -10 7 -11 21 -20 31 -20 11 0 30 -9 44 -20 14 -11 34 -20 44 -20 10 0
23 -9 29 -20 6 -11 19 -20 29 -20 10 0 26 -9 36 -20 10 -11 22 -20 26 -20 12
0 143 -89 156 -107 7 -9 15 -14 18 -11 9 9 -40 58 -58 58 -9 0 -21 9 -27 20
-6 11 -17 20 -24 20 -7 0 -21 9 -31 20 -10 11 -24 20 -32 20 -7 0 -36 18 -64
40 -28 22 -61 40 -74 40 -12 0 -26 7 -29 15 -3 9 -18 21 -33 28 -16 7 -39 19
-53 28 -31 20 -80 33 -80 20z"/>
<path d="M4400 5765 c7 -8 21 -15 31 -15 10 0 22 -7 27 -16 7 -13 13 -14 29
-5 11 5 23 7 27 4 3 -3 6 -2 6 3 0 5 24 10 53 12 28 2 59 10 67 18 12 12 9 14
-30 14 -25 -1 -63 -7 -85 -15 -51 -19 -70 -19 -85 0 -7 8 -21 15 -32 15 -17 0
-18 -3 -8 -15z"/>
<path d="M5523 5648 c1 -53 5 -91 9 -85 11 18 9 150 -2 167 -7 10 -9 -16 -7
-82z"/>
<path d="M3870 5645 c0 -3 25 -31 56 -63 30 -31 52 -48 48 -38 -4 10 -27 38
-52 62 -44 43 -52 49 -52 39z"/>
<path d="M4748 5625 c-6 -6 -47 -13 -80 -14 -20 -1 -28 -6 -28 -19 0 -20 44
-65 73 -75 27 -10 20 11 -10 25 -52 26 -37 35 69 41 57 4 118 9 136 13 22 4
32 3 32 -6 0 -6 9 -23 20 -37 25 -31 27 -13 3 25 -25 39 -28 40 -93 30 -46 -7
-65 -6 -88 6 -16 8 -31 13 -34 11z"/>
<path d="M4980 5510 c0 -6 7 -24 14 -39 13 -25 13 -32 -1 -64 -9 -19 -27 -41
-39 -48 -21 -11 -29 -7 -86 44 -34 31 -64 55 -65 53 -3 -3 128 -136 134 -136
10 0 56 58 68 86 11 23 12 40 4 67 -9 35 -29 60 -29 37z"/>
<path d="M5493 5512 c-6 -4 -17 -20 -22 -35 -14 -36 4 -26 24 14 17 31 16 33
-2 21z"/>
<path d="M4230 5495 c0 -10 64 -95 72 -95 4 0 14 -12 22 -27 8 -16 15 -23 16
-17 0 6 -23 41 -51 78 -48 62 -59 73 -59 61z"/>
<path d="M4742 5488 c2 -6 12 -12 22 -14 14 -2 15 0 5 12 -14 17 -32 19 -27 2z"/>
<path d="M4020 5472 c0 -6 9 -21 20 -34 26 -30 92 -118 105 -140 6 -9 24 -36
42 -61 17 -25 34 -54 37 -65 7 -22 36 -50 36 -36 0 5 -14 29 -30 54 -16 25
-30 49 -30 53 0 4 -22 36 -50 70 -27 34 -50 66 -50 72 0 5 -18 30 -40 54 -22
24 -40 39 -40 33z"/>
<path d="M4545 5430 c3 -5 8 -10 11 -10 2 0 4 5 4 10 0 6 -5 10 -11 10 -5 0
-7 -4 -4 -10z"/>
<path d="M5438 5428 c-1 -7 -2 -35 -3 -63 0 -27 -2 -102 -4 -165 -1 -63 -2
-131 -2 -150 2 -32 3 -33 14 -15 14 23 20 405 6 405 -5 0 -10 -6 -11 -12z"/>
<path d="M4595 5390 c3 -5 11 -10 16 -10 6 0 7 5 4 10 -3 6 -11 10 -16 10 -6
0 -7 -4 -4 -10z"/>
<path d="M4631 5354 c13 -16 29 -19 29 -5 0 5 -9 11 -21 14 -16 4 -18 3 -8 -9z"/>
<path d="M5160 5338 c-11 -12 -20 -25 -20 -30 0 -12 28 2 34 18 3 8 17 14 31
14 l26 0 -5 -132 c-6 -143 -14 -198 -26 -198 -5 0 -12 10 -16 23 -4 12 -15 28
-25 35 -11 7 -19 19 -19 26 0 7 -11 23 -25 36 -27 26 -31 54 -12 86 6 12 18
32 26 45 10 17 5 15 -16 -8 -45 -48 -48 -89 -10 -132 16 -19 38 -54 48 -77 21
-46 47 -59 85 -42 24 11 32 32 15 42 -9 6 -7 110 4 222 5 49 3 65 -10 78 -23
22 -60 20 -85 -6z"/>
<path d="M4340 5334 c0 -6 16 -28 35 -48 19 -21 35 -34 35 -29 0 13 -69 89
-70 77z"/>
<path d="M4670 5325 c0 -3 37 -42 82 -86 l82 -79 -26 -28 c-14 -15 -28 -36
-32 -47 -4 -11 8 -2 28 20 40 46 45 69 16 87 -11 7 -20 18 -20 24 0 6 -16 24
-36 40 -19 16 -47 39 -60 52 -25 22 -34 27 -34 17z"/>
<path d="M4410 5230 c0 -8 11 -28 25 -45 17 -21 23 -24 18 -10 -3 11 -10 22
-13 25 -4 3 -12 14 -18 25 -8 14 -11 16 -12 5z"/>
<path d="M4461 5135 c-1 -5 8 -21 19 -35 11 -14 20 -20 20 -14 0 7 -9 22 -20
35 -10 13 -19 20 -19 14z"/>
<path d="M3997 5123 c-14 -13 -7 -81 10 -94 15 -12 16 -12 11 6 -3 11 -9 27
-12 35 -4 9 0 24 8 35 14 20 15 20 45 -3 17 -12 42 -22 56 -22 14 0 30 -9 37
-20 8 -12 24 -20 41 -20 20 0 31 -7 39 -25 8 -18 19 -25 40 -25 16 0 31 -6 34
-15 7 -18 40 -20 50 -3 4 6 -2 19 -14 29 -12 9 -22 27 -22 38 0 11 -13 35 -30
53 -33 37 -41 25 -10 -15 11 -14 20 -35 20 -47 0 -17 -4 -20 -22 -15 -13 4
-37 16 -54 26 -17 11 -38 19 -46 19 -9 0 -21 6 -27 14 -7 8 -25 18 -41 21 -16
3 -34 13 -41 21 -12 14 -60 19 -72 7z"/>
<path d="M1620 5070 c0 -5 5 -10 10 -10 6 0 10 5 10 10 0 6 -4 10 -10 10 -5 0
-10 -4 -10 -10z"/>
<path d="M4500 5053 c0 -5 4 -13 9 -18 5 -6 11 -23 13 -40 3 -31 25 -43 56
-29 13 6 11 8 -13 13 -23 5 -31 12 -33 33 -3 24 -32 62 -32 41z"/>
<path d="M4727 5013 c-23 -26 -37 -33 -65 -33 -41 0 -38 -9 6 -14 23 -3 37 3
62 29 18 18 31 37 29 42 -2 5 -17 -6 -32 -24z"/>
<path d="M5402 5003 c-8 -15 -20 -57 -37 -133 -2 -8 -8 -28 -12 -45 -14 -48
-1 -165 17 -165 6 0 10 -7 10 -15 0 -9 12 -34 27 -58 16 -23 33 -53 40 -67 10
-22 11 -22 12 -5 1 11 -8 34 -19 50 -11 17 -20 36 -20 44 0 8 -10 25 -22 39
-20 20 -23 34 -22 101 1 55 7 88 21 116 21 42 36 142 22 151 -4 2 -12 -3 -17
-13z"/>
<path d="M4020 4988 c0 -9 7 -24 16 -32 30 -31 33 -13 4 24 -15 19 -20 21 -20
8z"/>
<path d="M4910 4969 c-15 -28 -5 -36 18 -16 24 22 39 21 47 0 3 -10 24 -38 46
-63 36 -41 39 -43 27 -14 -18 44 -84 114 -108 114 -10 0 -24 -9 -30 -21z"/>
<path d="M4060 4927 c0 -12 65 -67 81 -67 9 0 24 -9 34 -20 10 -11 23 -20 30
-20 7 0 20 -9 30 -20 10 -11 26 -20 37 -20 10 0 18 -5 18 -12 0 -6 2 -9 5 -6
10 9 -7 38 -21 38 -8 0 -24 11 -35 24 -12 14 -27 22 -33 20 -7 -3 -21 4 -31
16 -10 11 -27 20 -39 20 -11 0 -33 12 -48 27 -15 15 -28 24 -28 20z"/>
<path d="M4862 4893 l-23 -36 21 -43 c19 -35 22 -54 18 -111 -3 -37 -8 -75
-11 -83 -10 -22 26 -63 49 -58 18 5 18 5 -1 13 -33 14 -46 27 -36 39 25 32 20
138 -10 212 -13 32 -10 44 17 82 9 12 13 22 8 22 -5 -1 -19 -17 -32 -37z"/>
<path d="M5060 4828 c0 -9 8 -23 19 -30 24 -17 43 -85 31 -109 -6 -10 -10 -28
-10 -41 0 -13 -9 -36 -20 -53 -11 -16 -20 -40 -20 -51 0 -12 -7 -27 -15 -34
-8 -7 -19 -27 -24 -44 -7 -24 -9 -26 -10 -9 -2 38 -21 37 -21 -1 0 -49 -36
-86 -84 -86 -37 0 -48 -13 -20 -24 29 -11 53 -6 64 14 11 21 30 27 30 9 0 -6
-9 -22 -20 -36 -11 -14 -20 -36 -20 -48 0 -12 -9 -30 -20 -40 -11 -10 -20 -24
-20 -31 0 -7 -15 -34 -32 -60 -33 -46 -45 -66 -58 -93 -16 -35 -28 -18 -34 48
-11 105 -24 95 -23 -17 0 -83 -3 -102 -22 -133 -29 -49 -72 -57 -118 -22 -30
22 -33 22 -33 6 0 -31 21 -43 72 -43 32 0 48 -4 48 -12 1 -9 5 -8 13 3 7 8 25
24 41 34 25 16 27 23 22 54 -3 24 -2 31 4 21 7 -12 11 -10 18 10 5 14 19 34
31 44 11 11 21 24 21 30 0 7 9 19 20 29 11 9 20 25 20 35 0 11 11 31 25 46 14
15 25 36 25 47 0 11 4 17 10 14 5 -3 15 15 22 41 7 25 18 49 25 51 7 3 13 19
13 37 0 20 7 35 20 44 11 7 20 23 20 37 0 14 7 36 15 49 8 12 26 55 39 94 32
94 28 158 -14 204 -22 23 -30 28 -30 16z"/>
<path d="M4291 4634 c0 -11 3 -14 6 -6 3 7 2 16 -1 19 -3 4 -6 -2 -5 -13z"/>
<path d="M4304 4577 c5 -23 -4 -37 -80 -112 -47 -47 -142 -131 -212 -187 -159
-127 -150 -118 -126 -118 10 0 46 25 79 55 33 30 66 55 73 55 6 0 12 7 12 15
0 9 8 19 18 22 9 4 26 15 37 25 11 10 51 46 90 81 104 93 125 118 125 149 0
15 -5 30 -11 34 -9 5 -10 -1 -5 -19z"/>
<path d="M4960 4531 c0 -5 7 -15 17 -22 15 -13 15 -12 4 9 -12 23 -21 28 -21
13z"/>
<path d="M5460 4487 c0 -4 4 -15 9 -25 26 -52 49 -111 56 -142 4 -19 13 -54
21 -78 8 -23 14 -58 14 -76 0 -19 6 -39 14 -45 17 -14 31 -75 27 -119 -1 -18
2 -39 8 -46 6 -7 14 -33 17 -57 8 -61 25 -93 51 -97 21 -3 123 -97 123 -113 0
-5 5 -9 10 -9 19 0 10 20 -24 56 -32 34 -48 46 -103 75 -14 7 -23 22 -23 35 0
13 -9 46 -20 74 -11 28 -20 67 -20 88 -1 20 -8 55 -16 77 -9 22 -19 61 -24 87
-5 25 -16 60 -24 77 -9 16 -16 43 -16 58 0 16 -8 44 -18 63 -11 19 -22 46 -25
60 -6 25 -36 72 -37 57z"/>
<path d="M5243 4468 c-5 -7 -13 -22 -17 -33 -5 -16 -2 -15 14 5 l20 25 0 -26
c0 -14 9 -34 20 -44 11 -10 20 -28 20 -40 0 -11 7 -30 15 -41 15 -18 16 -17 9
16 -3 19 -13 46 -22 60 -10 14 -19 38 -22 54 -6 33 -22 43 -37 24z"/>
<path d="M4736 4437 c-16 -12 -17 -21 -10 -83 l9 -69 5 70 c6 84 20 92 77 43
38 -32 38 -32 13 -3 -49 59 -63 65 -94 42z"/>
<path d="M4355 4346 c-68 -65 -109 -96 -131 -100 -17 -4 -44 -18 -60 -32 -16
-13 -43 -33 -59 -44 -17 -10 -40 -33 -53 -49 -12 -17 -29 -31 -37 -31 -7 0
-23 -13 -35 -30 -12 -16 -27 -30 -33 -30 -7 0 -36 -18 -64 -40 -29 -22 -70
-48 -91 -59 -21 -11 -44 -27 -51 -35 -8 -9 -20 -16 -27 -16 -8 0 -14 -4 -14
-8 0 -5 -20 -19 -45 -32 -24 -13 -47 -30 -50 -39 -7 -20 -89 -111 -101 -111
-9 0 -84 -67 -84 -75 0 -10 59 18 64 31 3 8 14 14 24 14 11 0 26 10 34 22 18
27 53 18 45 -12 -3 -11 3 -26 13 -35 10 -9 20 -33 24 -54 3 -21 12 -44 20 -50
7 -6 16 -29 20 -50 3 -21 13 -44 21 -51 8 -7 15 -23 15 -35 0 -12 9 -34 20
-48 39 -49 20 -78 -61 -92 -21 -3 -42 -12 -49 -20 -7 -8 -27 -15 -44 -15 -17
0 -44 -9 -61 -20 -16 -11 -43 -20 -59 -20 -16 0 -45 -10 -64 -22 l-35 -22 -39
43 c-37 43 -49 41 -27 -2 6 -12 22 -33 34 -47 13 -14 26 -36 30 -50 4 -14 24
-41 44 -61 20 -19 61 -61 91 -93 31 -34 70 -64 91 -71 35 -13 59 -29 98 -69
48 -49 227 -225 253 -249 25 -24 37 -28 81 -26 38 2 56 8 66 21 7 11 24 23 36
28 28 11 135 149 135 174 0 9 20 59 44 109 24 51 47 103 51 117 4 14 20 50 36
80 16 30 31 70 35 87 8 40 23 46 65 25 40 -20 50 -62 26 -109 -8 -15 -18 -44
-22 -63 -4 -19 -15 -44 -25 -55 -9 -11 -20 -37 -23 -58 -5 -33 -4 -37 8 -27 8
7 17 28 21 49 4 20 13 44 21 53 8 9 17 35 20 57 3 22 12 46 19 52 14 12 19 75
8 103 -4 9 -23 19 -46 22 -22 4 -42 13 -45 20 -3 8 -12 14 -20 14 -19 0 -113
97 -113 118 0 8 -10 30 -22 50 -19 31 -22 50 -22 158 0 102 2 126 16 136 8 7
18 25 22 40 3 15 31 53 61 84 58 59 70 97 40 128 -8 8 -18 28 -21 45 -4 17
-13 36 -20 42 -8 6 -14 18 -14 27 0 8 -9 29 -19 46 -26 42 -43 154 -27 182 15
28 147 144 163 144 7 0 21 -4 31 -9 9 -5 24 -12 33 -14 13 -4 17 -26 23 -104
3 -54 13 -147 21 -208 9 -72 12 -86 9 -40 -2 39 -7 131 -10 205 -7 137 -13
160 -44 160 -9 0 -25 9 -35 20 -10 11 -21 20 -24 20 -3 0 -51 -43 -106 -94z
m-451 -1416 c4 -29 13 -53 20 -56 8 -3 17 -20 20 -39 4 -18 13 -38 21 -45 8
-7 15 -22 15 -35 0 -12 9 -32 20 -45 11 -13 20 -29 20 -36 0 -8 10 -33 21 -58
26 -51 20 -76 -16 -76 -15 0 -35 -5 -46 -10 -17 -9 -31 0 -102 66 -134 127
-227 226 -227 244 0 5 15 14 34 20 19 6 37 17 40 25 3 8 15 15 26 15 11 0 29
9 39 19 10 10 28 22 39 25 11 4 26 13 32 21 23 28 37 16 44 -35z"/>
<path d="M5197 4377 c-9 -14 -17 -33 -17 -41 0 -8 36 -51 80 -97 44 -46 83
-93 86 -104 11 -35 35 -56 51 -44 20 17 16 43 -12 67 -20 17 -25 31 -25 66 0
24 -6 48 -12 54 -10 8 -12 -2 -10 -45 3 -34 0 -54 -6 -52 -11 5 -132 137 -132
145 0 3 5 14 11 25 5 11 9 27 7 37 -2 12 -7 10 -21 -11z"/>
<path d="M4030 4360 c0 -5 5 -10 10 -10 6 0 10 5 10 10 0 6 -4 10 -10 10 -5 0
-10 -4 -10 -10z"/>
<path d="M3835 4200 c3 -5 8 -10 11 -10 2 0 4 5 4 10 0 6 -5 10 -11 10 -5 0
-7 -4 -4 -10z"/>
<path d="M5061 4120 c-22 -45 -36 -100 -26 -100 3 0 13 16 21 35 8 19 19 35
24 35 6 0 10 9 10 20 0 34 23 22 74 -40 55 -66 68 -77 39 -29 -35 54 -94 119
-108 119 -8 0 -23 -18 -34 -40z"/>
<path d="M4998 3993 c-10 -11 -18 -24 -18 -29 0 -6 -14 -26 -31 -45 -32 -35
-60 -90 -73 -143 -6 -26 -5 -28 8 -17 9 8 16 20 16 29 0 8 7 24 17 34 17 19
34 46 55 88 6 14 20 35 31 47 10 11 17 29 15 38 -3 16 -5 15 -20 -2z"/>
<path d="M5220 3994 c0 -6 7 -18 17 -25 9 -8 22 -27 30 -44 26 -54 46 -90 60
-103 22 -22 15 3 -12 42 -14 20 -25 43 -25 50 0 16 -69 95 -70 80z"/>
<path d="M4665 3857 c-11 -6 -31 -12 -45 -13 -48 -3 -149 -46 -194 -83 -33
-28 -78 -106 -98 -170 -20 -63 -20 -67 -3 -114 29 -81 74 -155 114 -187 22
-16 43 -30 49 -30 5 0 31 -9 57 -21 36 -16 58 -19 92 -14 66 10 154 43 181 68
81 74 113 188 89 313 -16 83 -42 123 -95 141 -43 15 -52 11 -17 -7 14 -7 25
-19 25 -27 0 -7 12 -31 26 -53 23 -34 26 -49 26 -124 0 -95 -13 -127 -81 -199
-41 -44 -81 -57 -173 -57 -84 0 -112 11 -166 63 -53 51 -88 152 -78 220 9 61
49 141 82 164 67 48 213 83 243 59 12 -9 13 -8 6 4 -5 8 -11 29 -14 47 -5 28
-8 31 -26 20z"/>
<path d="M5340 3775 c0 -15 -9 -38 -20 -52 -11 -14 -20 -31 -20 -37 0 -7 -9
-29 -20 -51 -28 -56 -26 -131 6 -208 30 -71 59 -113 69 -97 3 5 -7 27 -24 47
-17 21 -31 45 -31 55 0 9 -4 20 -10 23 -5 3 -10 40 -10 82 0 61 5 87 26 130
14 30 32 57 40 60 16 6 19 59 4 68 -6 4 -10 -5 -10 -20z"/>
<path d="M4380 3770 c0 -5 5 -10 10 -10 6 0 10 5 10 10 0 6 -4 10 -10 10 -5 0
-10 -4 -10 -10z"/>
<path d="M5830 3652 c6 -12 11 -71 11 -129 0 -69 4 -102 10 -92 5 8 9 55 9
105 0 78 -3 95 -21 115 l-20 24 11 -23z"/>
<path d="M3350 3585 c-7 -8 -19 -15 -27 -15 -18 0 -103 -71 -102 -85 0 -5 3
-4 6 3 2 6 10 12 17 12 7 0 21 9 31 20 10 11 23 20 30 20 7 0 20 9 30 20 10
11 26 20 36 20 10 0 21 5 24 10 10 16 -31 11 -45 -5z"/>
<path d="M1191 3490 c0 -8 4 -24 9 -35 5 -13 9 -14 9 -5 0 8 -4 24 -9 35 -5
13 -9 14 -9 5z"/>
<path d="M3216 3419 c-3 -22 -2 -48 3 -57 8 -13 10 -2 11 41 0 31 -2 57 -4 57
-2 0 -6 -18 -10 -41z"/>
<path d="M5822 3403 c-7 -3 -19 -18 -27 -34 -21 -39 4 -29 27 11 9 17 16 30
15 29 -1 0 -8 -3 -15 -6z"/>
<path d="M3208 3334 c-20 -20 -5 -62 35 -93 23 -18 22 -6 -2 16 -11 10 -21 33
-23 51 -2 19 -6 30 -10 26z"/>
<path d="M3680 3310 c0 -5 5 -10 10 -10 6 0 10 5 10 10 0 6 -4 10 -10 10 -5 0
-10 -4 -10 -10z"/>
<path d="M5717 3300 c-9 -11 -23 -20 -32 -20 -22 0 -47 -56 -43 -98 3 -35 4
-35 13 18 8 41 15 55 31 60 11 3 27 11 35 18 7 7 23 19 34 27 20 14 20 14 0
15 -11 0 -28 -9 -38 -20z"/>
<path d="M5304 3278 c-3 -12 -76 -91 -160 -175 -89 -89 -154 -162 -154 -173 0
-22 59 -101 80 -108 8 -3 -4 16 -27 41 -24 26 -43 53 -43 60 0 8 68 83 151
168 139 142 194 209 170 209 -5 0 -13 -10 -17 -22z"/>
<path d="M4657 3133 c-17 -5 -77 -118 -77 -147 0 -9 -9 -30 -20 -48 -11 -18
-20 -43 -20 -55 0 -13 -9 -37 -20 -55 -11 -18 -20 -43 -20 -54 0 -12 -9 -33
-20 -47 -11 -14 -20 -33 -20 -42 0 -9 -9 -28 -20 -42 -11 -14 -20 -36 -20 -49
0 -13 -4 -24 -8 -24 -15 0 -32 -49 -32 -89 0 -25 7 -44 20 -56 13 -11 20 -31
20 -52 0 -19 7 -48 16 -65 17 -32 16 -58 -5 -193 -7 -49 -48 -122 -77 -138
-21 -12 -18 -99 5 -128 10 -13 21 -41 25 -61 4 -21 11 -38 16 -38 5 0 14 -19
20 -42 7 -22 20 -57 31 -77 10 -20 19 -43 19 -52 0 -9 6 -19 14 -22 7 -3 16
-21 20 -40 4 -19 13 -40 21 -47 8 -7 15 -23 15 -35 0 -12 8 -33 19 -46 10 -13
22 -38 25 -56 4 -17 13 -37 21 -43 7 -6 16 -29 20 -51 4 -22 13 -43 20 -45 7
-3 16 -20 19 -39 4 -18 13 -38 21 -45 8 -7 15 -21 15 -32 0 -10 9 -36 19 -56
11 -20 32 -62 47 -94 17 -36 34 -58 48 -62 28 -8 970 -8 990 0 22 9 21 66 -3
95 -10 13 -22 35 -26 49 -4 14 -13 32 -20 40 -7 8 -16 29 -20 47 -3 17 -13 37
-21 44 -8 6 -14 17 -14 25 0 7 -11 33 -23 57 -13 24 -27 53 -30 63 -4 11 -11
26 -16 34 -20 33 -61 123 -61 135 0 7 -6 18 -14 24 -8 7 -18 25 -21 41 -3 16
-12 34 -20 40 -8 6 -17 24 -20 40 -3 16 -13 34 -20 40 -8 7 -17 27 -21 45 -3
19 -12 36 -19 39 -8 3 -17 21 -20 40 -4 19 -13 40 -21 47 -8 6 -14 18 -14 26
0 8 -9 31 -19 51 -11 20 -24 48 -30 62 -6 14 -15 32 -20 40 -18 32 -61 128
-61 137 0 6 -7 16 -15 23 -8 7 -17 27 -21 46 -3 18 -12 38 -19 44 -8 6 -17 24
-20 40 -3 16 -13 34 -20 40 -8 7 -17 28 -21 47 -4 19 -13 37 -20 40 -7 3 -16
21 -20 40 -4 19 -13 37 -20 40 -8 3 -14 14 -14 25 0 10 -9 36 -19 56 -11 20
-24 48 -30 62 -6 14 -15 32 -19 40 -5 8 -18 35 -29 60 -11 25 -32 69 -47 98
-14 30 -26 60 -26 67 0 7 -7 18 -15 25 -8 7 -17 28 -21 47 -4 19 -13 37 -20
40 -8 3 -14 19 -14 35 0 21 -10 40 -34 64 -28 28 -41 34 -72 33 -22 -1 -47 -3
-57 -6z"/>
<path d="M5379 3077 c-14 -17 -31 -42 -38 -54 -6 -13 -16 -23 -21 -23 -5 0
-20 -10 -33 -22 -13 -13 -37 -35 -53 -50 -16 -14 -33 -31 -39 -38 -5 -6 -26
-25 -45 -42 -19 -16 -26 -25 -15 -20 25 12 106 84 198 175 38 37 70 67 73 67
10 0 3 -41 -8 -45 -8 -3 -14 -28 -15 -62 -2 -31 -6 -66 -9 -77 -6 -19 -6 -19
11 -3 10 11 19 40 22 75 3 31 12 75 19 97 18 52 17 55 -3 55 -10 0 -30 -15
-44 -33z"/>
<path d="M5608 3060 c-4 -14 -7 -45 -7 -70 l1 -45 9 33 c6 19 9 50 7 70 -3 34
-4 35 -10 12z"/>
<path d="M5577 2909 c-9 -17 -20 -49 -23 -72 -3 -23 -12 -55 -19 -72 -7 -16
-16 -48 -19 -70 -6 -37 -5 -39 9 -21 8 11 15 32 15 47 0 15 9 46 20 70 11 24
20 57 20 72 0 16 5 37 11 49 17 32 5 30 -14 -3z"/>
<path d="M5350 2834 c-6 -14 -10 -35 -10 -47 0 -12 -9 -35 -20 -52 -11 -16
-20 -40 -20 -51 0 -12 -6 -27 -14 -33 -7 -6 -16 -25 -20 -41 -3 -17 -15 -43
-27 -59 -17 -23 -21 -39 -16 -71 3 -23 12 -49 21 -59 9 -10 16 -26 16 -37 0
-10 5 -26 10 -34 7 -11 10 -8 10 16 0 17 -7 37 -15 44 -10 9 -15 32 -15 76 0
52 3 65 19 73 11 7 20 26 24 51 3 23 12 49 21 59 9 10 16 29 16 42 0 14 6 33
14 44 13 20 31 105 21 105 -3 0 -10 -12 -15 -26z"/>
<path d="M4410 2806 c0 -2 -7 -21 -15 -42 l-16 -39 21 24 c18 21 28 61 15 61
-3 0 -5 -2 -5 -4z"/>
<path d="M4355 2691 c-3 -16 -13 -35 -21 -42 -8 -6 -14 -26 -14 -44 0 -19 -8
-39 -19 -49 -10 -10 -24 -37 -30 -62 -9 -36 -9 -50 4 -74 9 -17 20 -30 25 -30
6 0 10 -12 10 -26 0 -14 9 -39 21 -55 15 -22 19 -39 15 -62 -3 -18 -1 -39 4
-47 15 -23 12 60 -4 122 -8 30 -26 71 -40 93 -16 23 -24 45 -20 54 4 9 9 27
12 41 2 14 10 32 17 40 7 8 16 31 20 50 4 19 16 47 26 62 20 28 25 58 10 58
-5 0 -12 -13 -16 -29z"/>
<path d="M3521 2664 c15 -16 38 -41 51 -56 14 -16 29 -28 33 -28 9 0 -85 103
-100 109 -5 2 2 -9 16 -25z"/>
<path d="M5489 2637 c-9 -7 -18 -31 -20 -54 -3 -24 -1 -39 4 -34 7 7 39 101
34 101 -1 0 -9 -6 -18 -13z"/>
<path d="M3620 2562 c0 -12 19 -26 26 -19 2 2 -2 10 -11 17 -9 8 -15 8 -15 2z"/>
<path d="M3660 2520 c0 -5 9 -14 20 -20 16 -8 18 -8 14 4 -6 17 -34 30 -34 16z"/>
<path d="M5436 2489 c-8 -19 -24 -44 -35 -56 -12 -12 -21 -27 -21 -32 0 -22
-46 -80 -64 -81 -15 0 -17 -3 -9 -11 20 -20 62 -2 69 29 4 15 12 34 19 42 22
28 68 130 62 137 -4 3 -13 -9 -21 -28z"/>
<path d="M3705 2470 c3 -5 11 -10 16 -10 6 0 7 5 4 10 -3 6 -11 10 -16 10 -6
0 -7 -4 -4 -10z"/>
<path d="M3740 2445 c0 -4 11 -21 25 -37 21 -24 25 -37 20 -62 -19 -89 -19
-84 4 -51 31 45 27 80 -14 122 -19 20 -35 33 -35 28z"/>
<path d="M3776 2178 c6 -35 4 -38 -18 -38 -13 0 -31 -9 -41 -20 -9 -11 -29
-20 -44 -20 -16 0 -41 -9 -58 -20 -16 -11 -43 -20 -58 -20 -16 0 -38 -5 -49
-11 -17 -9 -18 -13 -7 -20 20 -13 80 0 105 22 11 11 32 19 46 19 14 0 31 7 39
16 7 8 21 13 31 11 10 -3 18 -1 18 4 0 5 8 9 18 9 40 0 56 49 27 86 -14 18
-15 16 -9 -18z"/>
<path d="M4328 2154 c-5 -4 -8 -17 -8 -28 0 -22 -95 -116 -118 -116 -7 0 -26
-10 -43 -22 -25 -19 -41 -22 -112 -20 l-82 2 -26 -43 c-14 -23 -29 -51 -33
-62 -5 -18 -5 -18 11 2 10 12 26 34 36 48 16 23 24 25 85 25 48 0 78 6 105 20
20 11 42 20 48 20 36 0 154 132 147 165 -1 9 -6 13 -10 9z"/>
<path d="M2234 2027 c-23 -12 -47 -27 -55 -33 -8 -6 -34 -14 -58 -18 -24 -4
-56 -13 -70 -20 -14 -8 -37 -19 -51 -25 -117 -55 -121 -65 -60 -154 22 -31 40
-62 40 -67 0 -6 8 -18 18 -28 9 -10 30 -38 47 -62 66 -99 193 -251 302 -363
64 -64 118 -117 120 -117 3 0 17 -10 32 -23 l28 -23 -61 4 c-34 2 -74 11 -91
19 -16 8 -52 17 -80 20 -27 3 -57 12 -66 19 -8 8 -36 18 -61 22 -25 5 -56 16
-69 25 -13 10 -33 17 -45 17 -12 0 -33 9 -47 20 -14 11 -37 20 -51 20 -15 0
-29 6 -32 14 -3 8 -20 18 -37 22 -18 3 -40 15 -50 25 -10 11 -25 19 -34 19 -9
0 -25 7 -35 17 -21 19 -49 36 -95 58 -18 8 -33 19 -33 24 0 5 -13 14 -30 20
-16 5 -30 15 -30 21 0 16 -42 29 -62 18 -10 -5 -18 -17 -18 -27 0 -10 -9 -26
-21 -37 -11 -10 -25 -26 -30 -35 -10 -20 8 -89 24 -89 7 0 41 -20 77 -45 36
-25 70 -45 75 -45 6 0 18 -9 28 -20 9 -11 25 -20 35 -20 10 0 25 -9 35 -20 9
-11 25 -20 35 -20 11 0 29 -9 42 -20 13 -11 32 -20 42 -20 11 0 31 -9 45 -20
14 -11 35 -20 45 -20 11 0 31 -9 45 -20 14 -11 35 -20 47 -20 11 0 35 -9 51
-20 17 -11 40 -20 53 -20 12 0 39 -9 59 -20 21 -11 50 -20 66 -20 15 0 44 -7
64 -15 20 -8 61 -18 92 -21 31 -3 70 -10 86 -16 17 -6 62 -16 100 -22 65 -11
70 -14 69 -36 -1 -26 24 -52 40 -43 5 4 6 1 1 -6 -7 -13 50 -81 67 -81 5 0 22
-10 37 -21 25 -18 43 -21 118 -21 84 0 107 5 162 37 35 19 121 117 121 136 0
23 25 42 47 36 10 -3 43 3 73 13 42 15 47 19 23 16 -19 -1 -33 2 -33 8 0 6 -4
5 -9 -2 -4 -8 -11 -13 -15 -13 -3 1 -26 1 -51 1 -39 0 -45 -3 -51 -24 -3 -13
-14 -26 -25 -29 -10 -3 -22 -13 -25 -24 -26 -77 -61 -110 -123 -115 -19 -1
-31 -8 -31 -16 0 -11 -9 -13 -42 -8 -23 4 -46 12 -50 19 -4 7 -8 8 -8 3 0 -5
-6 -3 -14 3 -7 6 -21 9 -30 5 -9 -3 -16 -1 -16 6 0 6 -4 8 -10 5 -6 -3 -10 4
-10 17 0 16 -3 19 -9 10 -12 -20 -16 -19 -40 2 -12 11 -21 15 -21 10 0 -18
-48 72 -55 104 -4 21 -16 37 -31 44 -17 8 -21 14 -14 23 12 14 4 75 -11 90 -5
5 -9 23 -8 40 0 16 3 25 5 18 4 -9 11 -9 30 -1 26 12 33 48 9 48 -8 0 -15 7
-15 16 0 8 7 22 15 30 8 9 15 11 15 5 0 -6 7 -11 15 -11 8 0 15 -3 15 -7 0 -5
13 -8 30 -9 21 -1 31 4 35 17 4 11 18 22 33 25 15 4 34 14 43 23 16 17 61 19
127 5 38 -8 43 8 7 24 -35 16 -68 15 -112 -3 -19 -8 -43 -15 -53 -15 -9 0 -25
-9 -35 -20 -23 -26 -46 -25 -87 3 -50 33 -59 41 -201 182 -126 124 -221 228
-241 264 -5 9 -33 46 -63 82 -29 36 -53 71 -53 76 0 5 -11 20 -24 32 -26 24
-39 58 -26 66 9 6 65 -11 102 -31 14 -8 39 -14 55 -14 16 0 39 -7 51 -16 12
-8 48 -18 80 -21 31 -3 70 -12 85 -20 16 -8 76 -18 135 -23 59 -6 125 -14 147
-20 52 -12 317 -12 373 0 23 6 85 15 138 20 52 5 108 17 124 25 16 8 46 15 67
15 21 0 58 9 82 20 24 11 61 20 84 20 24 0 48 7 59 17 10 9 21 13 26 9 4 -4 0
-13 -8 -20 -8 -6 -19 -19 -25 -28 -5 -9 -24 -36 -40 -59 -49 -70 -50 -76 -9
-39 54 50 63 62 70 93 4 15 12 27 20 27 22 0 33 31 21 58 -10 21 -16 24 -52
19 -22 -3 -58 -14 -80 -23 -22 -10 -44 -17 -48 -16 -5 2 -11 -6 -14 -16 -3
-14 -11 -18 -29 -14 -14 2 -24 0 -24 -7 0 -7 -8 -11 -17 -10 -10 2 -34 -1 -53
-6 -44 -11 -100 -12 -100 -2 0 15 -29 6 -33 -10 -3 -10 -5 4 -6 30 0 27 -4 46
-8 44 -13 -8 -46 30 -33 38 6 4 17 2 24 -4 7 -6 16 -8 19 -4 4 3 8 -14 8 -38
1 -27 3 -35 6 -19 3 13 12 30 21 36 14 11 15 16 4 34 -11 18 -10 21 13 30 15
6 33 6 43 1 19 -9 82 13 82 29 0 16 -45 12 -108 -9 -31 -10 -88 -21 -127 -24
-38 -3 -111 -11 -162 -18 -76 -9 -91 -14 -90 -29 1 -14 7 -16 37 -9 48 12 50
11 50 -8 0 -10 4 -14 8 -8 4 6 17 11 30 13 20 3 22 -1 22 -42 0 -25 -4 -48
-10 -51 -6 -4 -7 1 -4 12 4 11 -6 5 -24 -14 -34 -36 -43 -39 -74 -22 -18 10
-25 8 -41 -12 -15 -19 -20 -20 -28 -8 -5 7 -9 20 -9 27 0 6 -7 12 -15 12 -8 0
-15 -5 -15 -11 0 -6 -7 -9 -15 -5 -10 4 -15 -1 -15 -16 0 -21 0 -21 -14 -2 -8
10 -10 21 -5 22 5 2 9 10 9 18 0 8 5 14 10 14 6 0 10 11 10 24 0 16 -7 26 -22
30 -33 8 -49 -13 -50 -66 -1 -61 -20 -54 -38 13 -8 28 -17 52 -22 55 -4 3 -2
14 5 24 14 24 53 26 61 3 6 -14 8 -14 21 3 25 33 34 31 -198 54 -49 5 -94 13
-101 19 -7 6 -42 14 -77 17 -35 4 -76 13 -91 20 -37 19 -76 16 -124 -9z m963
-109 c-3 -8 -6 -5 -6 6 -1 11 2 17 5 13 3 -3 4 -12 1 -19z m-70 -110 c-3 -7
-5 -2 -5 12 0 14 2 19 5 13 2 -7 2 -19 0 -25z m-505 -808 c6 0 9 -2 6 -5 -13
-14 -35 7 -30 28 l7 22 3 -22 c2 -13 8 -23 14 -23z"/>
<path d="M2851 1934 c0 -11 3 -14 6 -6 3 7 2 16 -1 19 -3 4 -6 -2 -5 -13z"/>
<path d="M2881 1903 c1 -17 3 -21 6 -10 2 9 9 17 14 17 5 0 9 5 9 10 0 6 -7
10 -15 10 -10 0 -15 -9 -14 -27z"/>
<path d="M2970 1854 c0 -15 4 -23 10 -19 6 4 17 1 25 -5 11 -9 15 -9 15 -1 0
6 7 11 15 11 8 0 15 8 15 18 0 14 -2 15 -10 2 -9 -13 -10 -13 -10 0 0 9 -11
16 -30 17 -26 2 -30 -1 -30 -23z"/>
<path d="M3855 1801 c-15 -22 -25 -46 -23 -53 3 -8 9 -4 18 12 7 14 21 33 31
43 11 10 19 22 19 27 0 21 -18 8 -45 -29z"/>
<path d="M3775 1679 c-16 -22 -40 -51 -52 -64 -13 -13 -23 -29 -23 -35 0 -5
-4 -10 -10 -10 -5 0 -10 -7 -10 -15 0 -9 -10 -20 -23 -26 -23 -10 -61 -59 -73
-94 -12 -35 92 81 172 190 8 11 25 34 39 51 14 18 25 35 25 38 0 15 -18 2 -45
-35z"/>
<path d="M3550 1679 c-7 -11 -18 -28 -26 -37 -41 -47 -104 -132 -98 -132 15 0
154 165 154 183 0 15 -20 6 -30 -14z"/>
<path d="M3387 1478 c-21 -32 -246 -258 -256 -258 -5 0 -14 -7 -21 -15 -12
-14 -15 -14 -36 0 -29 19 -55 20 -48 1 7 -19 62 -26 101 -12 17 6 42 25 55 41
12 17 36 41 53 55 67 55 185 183 185 199 0 18 -17 12 -33 -11z"/>
<path d="M4309 1483 c-13 -16 -12 -17 3 -5 10 8 27 10 45 7 21 -5 24 -4 13 4
-22 16 -46 13 -61 -6z"/>
<path d="M4245 1443 c-18 -17 -55 -40 -111 -66 -17 -8 -35 -20 -38 -26 -4 -6
-15 -11 -25 -11 -10 0 -25 -7 -32 -17 -13 -15 -11 -16 16 -9 17 4 32 12 33 17
4 10 103 59 120 59 6 0 19 11 28 25 9 14 23 25 30 25 8 0 14 5 14 10 0 15 -17
12 -35 -7z"/>
<path d="M4390 1447 c0 -7 9 -30 20 -51 16 -33 17 -40 5 -52 -7 -8 -17 -14
-22 -14 -5 0 -13 -10 -18 -22 -6 -13 -24 -26 -42 -30 -18 -5 -33 -12 -33 -17
0 -4 -10 -6 -23 -4 -17 3 -28 -2 -41 -21 -10 -15 -26 -26 -39 -26 -13 0 -33
-9 -45 -20 -12 -11 -26 -20 -31 -20 -6 0 -15 -9 -21 -20 -6 -11 -20 -20 -31
-20 -11 0 -33 -7 -49 -15 -17 -9 -32 -15 -35 -15 -27 1 -38 -4 -67 -30 -19
-18 -43 -30 -59 -30 -15 0 -29 -6 -32 -13 -7 -19 67 -5 92 17 9 9 24 16 33 16
8 0 27 9 41 20 14 11 34 20 45 20 10 0 30 8 43 18 13 10 35 23 49 30 14 6 32
16 40 21 8 5 26 14 40 20 14 6 39 20 55 31 17 11 44 27 61 34 17 8 36 22 44
30 7 9 18 16 26 16 21 0 44 29 44 56 0 24 -35 104 -45 104 -3 0 -5 -6 -5 -13z"/>
<path d="M3546 1394 c-3 -9 -12 -14 -19 -11 -19 7 -47 -12 -57 -39 -6 -14 -15
-22 -20 -19 -6 4 -13 -7 -16 -25 -4 -17 -8 -29 -11 -27 -5 5 -113 -104 -113
-115 0 -12 -53 -58 -75 -64 -29 -8 -67 -27 -86 -43 -13 -10 -14 -18 -5 -37 12
-26 21 -30 32 -12 4 7 3 8 -4 4 -8 -5 -12 0 -12 13 0 12 7 21 15 21 7 0 19 8
24 18 10 16 10 16 11 -1 0 -9 3 -16 8 -15 4 0 15 -2 25 -7 9 -4 28 -5 42 -3
13 3 26 0 29 -6 3 -7 5 -7 5 2 1 6 10 12 21 12 11 0 20 4 20 9 0 5 24 8 53 6
46 -1 54 2 72 25 15 20 30 27 65 29 25 1 52 9 60 16 14 13 64 26 100 28 8 0
21 8 30 18 8 10 34 20 59 22 25 3 50 12 56 21 7 9 22 16 33 16 12 0 29 8 39
19 10 10 33 22 50 26 39 8 53 25 21 25 -13 0 -34 -9 -48 -20 -14 -11 -32 -20
-40 -20 -8 0 -28 -9 -45 -20 -16 -11 -39 -20 -50 -20 -11 0 -37 -9 -58 -20
-20 -11 -45 -20 -55 -20 -9 0 -34 -9 -55 -20 -20 -11 -52 -20 -69 -20 -18 -1
-51 -8 -73 -16 -22 -8 -76 -19 -119 -24 -43 -5 -84 -14 -89 -19 -6 -6 -18 -11
-25 -11 -8 0 12 27 45 60 33 32 96 98 139 146 44 48 87 94 97 103 18 17 22 31
8 31 -5 0 -12 -7 -15 -16z"/>
<path d="M2660 1020 c0 -32 1 -33 17 -17 16 16 16 18 0 34 -16 16 -17 15 -17
-17z"/>
<path d="M2831 1013 c-1 -18 4 -23 22 -22 15 1 17 3 5 6 -9 2 -19 12 -21 21
-3 12 -5 10 -6 -5z"/>
<path d="M3698 1023 c-10 -2 -18 -11 -18 -18 0 -15 -67 -38 -82 -29 -4 3 -8 0
-8 -5 0 -6 -9 -11 -21 -11 -11 0 -29 -5 -39 -10 -10 -6 -40 -12 -67 -15 -26
-3 -54 -12 -63 -21 -14 -15 -10 -16 50 -11 36 3 82 13 102 21 21 9 52 16 70
16 18 0 53 9 77 20 24 11 51 20 60 20 22 0 58 26 49 35 -8 9 -88 15 -110 8z"/>
<path d="M2910 910 c0 -11 5 -20 10 -20 6 0 10 9 10 20 0 11 -4 20 -10 20 -5
0 -10 -9 -10 -20z"/>
<path d="M2965 840 c-3 -5 3 -10 14 -10 12 0 21 5 21 10 0 6 -6 10 -14 10 -8
0 -18 -4 -21 -10z"/>
</g></g>
<g id="icon-teal"><g fill="#239D91" stroke="none" transform="translate(0.000000,684.000000) scale(0.100000,-0.100000)">
<path d="M3537 6114 c-17 -17 -4 -45 42 -95 34 -37 51 -64 55 -91 4 -21 11
-38 17 -38 5 0 7 -5 3 -12 -4 -7 -3 -8 4 -4 7 4 13 17 13 29 1 17 3 15 9 -8 4
-16 8 -24 9 -17 0 6 9 12 19 12 10 0 13 -3 6 -8 -17 -11 -23 -50 -10 -62 7 -5
16 -7 19 -3 4 3 7 -6 7 -21 0 -15 4 -25 9 -21 5 3 16 -4 24 -15 7 -11 17 -17
20 -13 4 3 7 1 7 -5 0 -7 7 -12 15 -12 8 0 15 -7 15 -15 0 -8 9 -19 20 -25 11
-6 20 -17 20 -25 0 -8 4 -15 9 -15 14 0 99 -87 106 -109 3 -11 29 -44 57 -73
28 -29 60 -68 70 -87 11 -19 36 -54 55 -78 19 -23 44 -59 55 -80 11 -21 28
-52 38 -70 9 -17 29 -46 44 -63 14 -17 26 -41 26 -52 0 -11 10 -28 22 -37 12
-10 18 -23 14 -29 -10 -17 -43 -15 -50 3 -3 9 -18 15 -34 15 -21 0 -32 7 -40
25 -8 18 -19 25 -39 25 -17 0 -33 8 -41 20 -7 11 -23 20 -37 20 -14 0 -39 10
-56 22 -30 23 -31 23 -45 3 -8 -11 -12 -26 -8 -35 4 -8 9 -26 12 -40 3 -14 13
-37 23 -52 11 -14 19 -30 19 -35 0 -17 56 -63 76 -63 12 0 29 -9 39 -20 10
-12 24 -19 31 -16 6 2 21 -6 33 -20 11 -13 28 -24 36 -24 20 0 30 -45 19 -84
-9 -30 2 -106 19 -122 4 -4 7 -19 7 -33 0 -30 -22 -56 -125 -148 -39 -35 -79
-71 -90 -81 -11 -10 -28 -21 -37 -25 -10 -3 -18 -13 -18 -22 0 -8 -6 -15 -12
-15 -7 0 -40 -25 -73 -55 -34 -31 -69 -55 -82 -55 -13 0 -24 -8 -28 -19 -3
-11 -14 -22 -23 -26 -10 -3 -38 -23 -62 -45 -25 -21 -53 -46 -62 -55 -10 -8
-22 -15 -26 -15 -5 0 -19 -11 -31 -24 -13 -13 -34 -27 -47 -30 -13 -4 -24 -11
-24 -16 0 -6 -7 -10 -15 -10 -8 0 -25 -11 -37 -25 -12 -14 -30 -25 -40 -25
-10 0 -21 -7 -24 -15 -4 -8 -15 -15 -25 -15 -10 0 -26 -11 -35 -25 -9 -14 -20
-22 -25 -20 -4 3 -17 -3 -29 -15 -11 -11 -26 -20 -34 -20 -8 0 -23 -11 -33
-24 -10 -13 -29 -26 -41 -30 -12 -4 -22 -12 -22 -17 0 -5 -8 -9 -18 -9 -11 0
-27 -9 -37 -20 -21 -24 -65 -27 -65 -5 0 9 -9 15 -24 15 -13 0 -29 6 -35 14
-6 7 -42 16 -81 20 -56 6 -74 4 -95 -10 -23 -15 -90 -33 -140 -37 -12 -2 -22
5 -26 18 -4 17 -12 20 -52 18 -25 -2 -48 1 -52 6 -3 5 -14 7 -26 4 -17 -5 -19
-11 -14 -37 4 -17 13 -36 21 -42 8 -6 14 -14 14 -18 0 -5 9 -15 20 -24 54 -44
61 -269 8 -236 -4 3 -8 -11 -8 -31 0 -31 -2 -35 -17 -27 -25 15 -44 -9 -35
-43 9 -32 53 -43 73 -19 9 11 15 11 25 3 7 -6 17 -8 23 -5 5 3 11 1 13 -5 3
-8 14 -8 40 -1 29 8 41 6 63 -8 16 -10 43 -21 61 -25 19 -3 38 -15 44 -25 11
-21 65 -28 72 -10 4 12 76 22 101 14 9 -3 17 -12 17 -20 0 -8 7 -14 16 -14 9
0 18 -9 21 -20 3 -12 14 -20 26 -20 28 0 120 -63 142 -97 10 -15 49 -58 86
-95 37 -37 70 -77 74 -90 14 -43 46 -109 63 -127 21 -22 147 -151 164 -169
138 -136 148 -156 108 -217 -23 -35 -25 -72 -5 -99 28 -38 13 -86 -27 -86 -10
0 -18 -4 -18 -9 0 -5 -8 -7 -18 -4 -10 2 -24 -3 -31 -11 -8 -9 -25 -16 -39
-16 -14 0 -36 -9 -48 -21 -16 -15 -37 -21 -83 -23 -40 -1 -65 -7 -73 -17 -20
-24 -62 -38 -80 -28 -10 6 -27 5 -42 -1 -24 -9 -25 -12 -14 -30 11 -18 10 -23
-4 -34 -9 -6 -18 -23 -21 -36 -3 -16 -5 -8 -6 19 0 24 -4 41 -8 38 -3 -4 -12
-2 -19 4 -7 6 -18 8 -24 4 -13 -8 20 -46 33 -38 4 2 8 -17 8 -44 1 -26 3 -40
6 -30 4 16 33 25 33 10 0 -10 56 -9 100 2 19 5 43 8 53 6 9 -1 17 3 17 10 0 7
10 9 24 7 18 -4 26 0 29 14 3 10 9 18 14 16 4 -1 26 6 48 16 22 9 58 20 80 23
36 5 42 2 52 -19 12 -27 1 -58 -21 -58 -8 0 -16 -13 -19 -29 -3 -16 -28 -49
-56 -76 -28 -27 -51 -53 -51 -59 0 -13 -78 -114 -122 -158 -21 -21 -38 -43
-38 -49 0 -16 -118 -144 -185 -199 -17 -14 -40 -38 -53 -55 -13 -16 -38 -35
-55 -41 -34 -12 -88 -7 -99 9 -3 5 -23 11 -45 13 -110 10 -117 9 -132 -7 -9
-9 -28 -19 -43 -23 -15 -3 -29 -14 -33 -25 -4 -13 -14 -18 -35 -17 -17 1 -30
4 -30 9 0 4 -7 7 -15 7 -8 0 -15 5 -15 11 0 6 -7 4 -15 -5 -19 -19 -19 -46 0
-46 24 0 17 -36 -9 -48 -19 -8 -26 -8 -30 1 -2 7 -5 -2 -5 -18 -1 -17 3 -35 8
-40 15 -15 23 -76 11 -90 -7 -9 -3 -15 14 -23 16 -7 27 -25 36 -59 7 -26 12
-52 11 -56 -1 -5 3 -6 8 -3 5 4 13 -3 16 -15 4 -11 9 -18 13 -15 3 3 14 -2 25
-11 22 -20 26 -20 38 -1 6 9 9 6 9 -10 0 -13 4 -20 10 -17 5 3 10 1 10 -5 0
-7 7 -9 16 -6 9 4 23 1 30 -5 8 -6 14 -8 14 -3 0 5 4 4 8 -3 4 -7 27 -15 50
-19 33 -5 42 -3 42 8 0 8 12 15 31 16 62 5 97 38 123 115 3 11 15 21 25 24 11
3 22 16 25 29 6 21 12 24 51 24 25 0 48 0 51 -1 4 0 11 5 15 13 5 7 9 8 9 2 0
-14 61 -5 81 12 9 8 37 16 63 19 26 3 56 9 66 15 10 5 28 10 39 10 12 0 21 5
21 11 0 5 4 8 8 5 15 -9 82 14 82 29 0 23 96 31 130 10 5 -3 13 1 16 9 4 9 18
16 33 16 16 0 40 12 59 30 29 26 40 31 67 30 3 0 18 6 35 15 16 8 38 15 49 15
11 0 25 9 31 20 6 11 15 20 21 20 5 0 19 9 31 20 12 11 32 20 45 20 13 0 29
11 39 26 13 19 24 24 41 21 13 -2 23 0 23 4 0 5 15 12 33 17 18 4 36 17 42 30
5 12 13 22 18 22 5 0 15 6 22 14 12 12 11 19 -5 52 -11 21 -20 46 -20 56 0 11
-11 23 -26 28 -35 14 -38 13 -68 -15 -15 -14 -31 -25 -35 -25 -5 0 -16 -11
-25 -25 -9 -14 -22 -25 -28 -25 -19 0 -118 -50 -118 -60 0 -5 -15 -12 -34 -16
-19 -3 -37 -12 -40 -19 -2 -7 -20 -16 -38 -20 -18 -4 -41 -16 -51 -26 -10 -11
-27 -19 -39 -19 -11 0 -26 -7 -33 -16 -6 -9 -31 -18 -56 -21 -25 -2 -51 -12
-59 -22 -9 -10 -22 -18 -30 -18 -36 -2 -86 -15 -100 -28 -8 -7 -35 -15 -60
-16 -35 -2 -50 -9 -65 -29 -18 -23 -26 -26 -72 -25 -29 2 -53 -1 -53 -6 0 -5
-9 -9 -19 -9 -11 0 -22 -6 -24 -12 -3 -8 -6 -9 -6 -2 -1 6 -12 9 -26 6 -13 -2
-33 -1 -42 3 -10 5 -21 7 -25 7 -5 -1 -8 6 -8 16 -1 16 -1 16 -11 0 -5 -10
-17 -18 -24 -18 -8 0 -15 -9 -15 -21 0 -13 4 -18 12 -13 7 4 8 3 4 -4 -11 -18
-20 -14 -32 12 -9 19 -8 27 5 37 19 16 57 35 86 43 22 6 75 52 75 64 0 11 108
120 113 115 3 -2 7 10 11 27 3 18 10 29 16 25 5 -3 14 5 20 19 10 27 38 46 57
39 7 -3 16 2 19 11 3 9 12 16 20 16 8 0 14 6 14 13 0 23 52 95 77 106 13 6 23
17 23 26 0 8 5 15 10 15 6 0 10 5 10 10 0 6 11 22 25 36 14 14 25 28 25 32 0
4 17 25 38 47 22 22 42 51 45 65 4 14 22 43 42 64 19 22 35 44 35 49 0 5 12
29 28 53 l27 44 82 -2 c71 -2 87 1 112 20 17 12 36 22 43 22 23 0 118 94 118
116 0 12 6 27 14 33 21 17 18 120 -5 153 -11 14 -19 38 -19 52 0 14 -4 26 -10
26 -5 0 -16 13 -25 30 -13 24 -13 38 -4 74 6 25 20 52 30 62 11 10 19 30 19
49 0 18 6 38 14 44 8 7 18 26 21 42 4 16 10 29 14 29 11 0 51 101 58 146 3 22
14 48 23 59 10 11 21 36 25 55 4 19 14 48 22 63 24 47 14 89 -26 109 -42 21
-57 15 -65 -25 -4 -17 -19 -57 -35 -87 -16 -30 -32 -66 -36 -80 -4 -14 -27
-66 -51 -117 -24 -50 -44 -100 -44 -109 0 -25 -107 -163 -135 -174 -12 -5 -29
-17 -36 -28 -10 -13 -28 -19 -66 -21 -44 -2 -56 2 -81 26 -26 24 -205 200
-253 249 -39 40 -63 56 -98 69 -21 7 -60 37 -91 71 -30 32 -71 74 -91 93 -20
20 -40 47 -44 61 -4 14 -18 36 -31 50 -12 14 -30 41 -38 60 -8 19 -29 48 -45
63 -29 27 -40 65 -24 81 4 4 9 41 10 84 3 76 3 77 46 114 23 20 49 37 58 38 9
0 22 7 29 15 7 8 22 15 34 15 11 0 41 21 65 45 25 25 49 45 54 45 13 0 95 90
102 111 3 9 26 26 50 39 25 13 45 27 45 32 0 4 6 8 14 8 7 0 19 7 27 16 7 8
30 24 51 35 21 11 62 37 91 59 28 22 57 40 64 40 6 0 21 14 33 30 12 17 28 30
35 30 8 0 25 14 37 31 13 16 36 39 53 49 16 11 43 31 59 44 16 14 43 28 60 32
22 4 63 35 131 100 55 51 103 94 106 94 3 0 14 -9 24 -20 10 -11 26 -20 35
-20 31 0 40 -22 40 -104 0 -45 6 -139 12 -210 12 -125 13 -129 43 -151 44 -33
88 -24 116 24 18 30 22 54 23 146 2 64 -3 128 -10 153 -7 24 -16 72 -19 107
-6 57 -5 64 13 74 32 17 40 14 82 -31 35 -39 42 -42 82 -39 54 4 88 37 88 87
0 45 -43 104 -75 104 -33 0 -58 42 -45 75 18 47 12 139 -11 183 l-21 40 23 33
c13 19 26 36 29 39 3 3 11 17 17 33 8 16 20 27 33 27 24 0 88 -68 111 -118 9
-21 28 -49 42 -65 38 -40 42 -108 11 -199 -13 -39 -31 -82 -39 -94 -8 -13 -15
-35 -15 -49 0 -14 -9 -30 -20 -37 -13 -9 -20 -24 -20 -44 0 -18 -6 -34 -13
-37 -7 -2 -18 -26 -25 -51 -7 -26 -17 -44 -22 -41 -6 3 -10 -3 -10 -14 0 -11
-11 -32 -25 -47 -14 -15 -25 -35 -25 -46 0 -10 -9 -26 -20 -35 -11 -10 -20
-22 -20 -29 0 -6 -9 -19 -20 -29 -24 -22 -50 -71 -50 -95 0 -10 -12 -25 -26
-35 -63 -41 -81 -88 -51 -129 13 -17 146 -68 159 -60 3 2 10 19 13 36 12 53
41 111 74 147 17 19 31 40 31 47 0 7 11 21 24 31 13 11 27 33 30 51 11 48 45
112 60 112 16 0 65 -54 104 -113 14 -23 41 -60 59 -81 18 -22 33 -48 33 -57 0
-10 5 -21 10 -24 16 -10 60 -106 60 -131 0 -12 -7 -24 -14 -27 -8 -3 -26 -30
-40 -60 -21 -43 -26 -69 -26 -130 0 -42 5 -79 10 -82 6 -3 10 -14 10 -23 0
-10 14 -34 31 -55 28 -34 30 -40 16 -55 -8 -9 -21 -31 -30 -47 -8 -17 -83
-100 -166 -184 -83 -85 -151 -160 -151 -168 0 -20 80 -103 99 -103 15 0 71 42
96 70 6 7 23 24 39 38 16 15 40 37 53 50 13 12 28 22 33 22 5 0 15 10 21 23
24 43 64 87 82 87 20 0 21 -3 3 -55 -7 -22 -16 -66 -19 -97 -3 -32 -12 -64
-20 -73 -9 -8 -19 -37 -23 -63 -4 -26 -13 -56 -20 -67 -8 -11 -14 -30 -14 -44
0 -13 -7 -32 -16 -42 -9 -10 -18 -36 -21 -59 -4 -25 -13 -44 -24 -51 -16 -8
-19 -21 -19 -73 0 -43 5 -67 14 -76 8 -6 16 -28 18 -48 3 -31 7 -37 28 -39 19
-2 30 6 48 33 12 19 22 40 22 45 0 5 9 20 20 32 31 33 70 122 70 159 0 22 7
37 19 45 11 7 22 29 26 55 4 24 13 57 20 73 7 17 16 49 19 72 3 24 15 58 26
75 12 20 20 51 20 79 0 25 9 72 20 104 11 32 20 73 20 92 0 41 25 93 45 93 9
0 23 9 32 20 10 11 25 20 35 20 10 0 25 14 34 33 9 17 25 39 36 48 17 13 19
28 19 122 0 61 -5 115 -11 128 -28 52 -119 141 -153 149 -26 7 -43 39 -51 99
-3 24 -11 50 -17 57 -6 7 -9 28 -8 46 4 44 -10 105 -27 119 -8 6 -14 26 -14
45 0 18 -6 53 -14 76 -8 24 -17 59 -21 78 -4 19 -16 53 -26 75 -39 88 -59 135
-59 139 0 3 -14 25 -30 49 -16 25 -30 52 -30 61 0 9 -4 16 -10 16 -18 0 -31
117 -17 165 4 17 10 37 12 45 28 122 40 154 54 145 5 -3 10 64 12 148 1 83 3
177 3 208 1 38 6 61 19 73 9 10 17 24 17 31 0 8 9 23 20 33 30 28 39 72 33
159 -4 65 -9 82 -29 101 -13 13 -24 30 -24 39 0 21 -49 73 -69 73 -8 0 -25 10
-39 23 -21 20 -34 22 -120 22 -86 0 -99 -2 -119 -22 -12 -12 -30 -24 -40 -27
-10 -3 -37 -23 -61 -44 -47 -42 -48 -42 -137 -43 -33 -1 -64 -4 -70 -7 -5 -3
-25 -5 -45 -4 -86 5 -113 2 -129 -12 -9 -8 -40 -16 -69 -18 -28 -2 -52 -7 -52
-12 0 -5 -3 -6 -6 -3 -4 3 -16 1 -27 -4 -16 -9 -22 -8 -29 5 -5 9 -18 16 -28
16 -11 0 -25 9 -32 20 -7 11 -21 20 -31 20 -10 0 -28 11 -41 25 -13 13 -32 26
-42 28 -28 4 -110 46 -124 63 -7 7 -21 14 -32 14 -10 0 -28 9 -40 20 -12 11
-36 20 -53 20 -18 0 -37 8 -47 19 -10 12 -24 18 -36 14 -11 -2 -31 2 -43 10
-13 8 -34 14 -47 12 -14 -1 -36 10 -54 27 -23 21 -40 28 -71 28 -23 0 -48 7
-58 16 -10 9 -30 17 -46 19 -15 1 -42 6 -58 10 -17 3 -33 3 -38 -1z m543 -363
c14 -9 37 -21 53 -28 15 -7 30 -19 33 -28 3 -8 17 -15 29 -15 13 0 46 -18 74
-40 28 -22 57 -40 64 -40 8 0 22 -9 32 -20 10 -11 24 -20 31 -20 7 0 18 -9 24
-20 6 -11 18 -20 28 -20 9 0 32 -18 51 -40 19 -22 39 -40 45 -40 6 0 17 -9 24
-20 7 -11 19 -20 27 -20 8 0 19 -9 25 -20 6 -11 17 -20 25 -20 8 0 15 -7 15
-15 0 -8 4 -15 9 -15 6 0 21 -10 35 -22 13 -13 41 -36 60 -52 20 -16 36 -34
36 -40 0 -6 9 -17 20 -24 29 -18 25 -38 -20 -91 -22 -26 -40 -54 -40 -62 0
-19 -54 -72 -76 -75 -8 -1 -29 2 -46 8 -22 8 -36 7 -52 -2 -36 -19 -61 -9 -64
25 -2 17 -8 34 -13 40 -5 5 -9 16 -9 25 0 8 -9 26 -20 40 -11 14 -20 31 -20
38 0 7 -11 28 -25 46 -14 18 -25 40 -25 49 0 9 -13 30 -29 46 -17 17 -39 51
-50 76 -11 25 -24 45 -29 45 -9 0 -72 86 -72 98 0 4 -36 45 -80 92 -103 110
-120 129 -120 139 0 5 -7 14 -15 21 -40 33 14 34 65 1z m790 -143 c33 5 63 6
68 3 8 -5 20 -27 55 -95 22 -45 26 -78 12 -110 -12 -27 -58 -86 -68 -86 -1 0
-40 36 -85 81 -45 45 -86 78 -92 74 -7 -4 -14 2 -17 14 -3 11 -15 23 -27 27
-30 9 -76 55 -76 76 0 13 8 18 28 19 33 1 74 8 80 14 3 2 18 -3 34 -11 23 -12
42 -13 88 -6z m375 -264 c13 -13 15 -29 10 -78 -11 -112 -13 -216 -4 -222 17
-10 9 -31 -15 -42 -38 -17 -64 -4 -85 42 -10 23 -32 58 -48 77 -37 42 -35 84
8 130 16 17 29 39 29 48 0 26 38 61 65 61 13 0 31 -7 40 -16z m33 -899 c2 -16
12 -40 22 -52 10 -13 21 -41 25 -63 4 -21 13 -44 21 -51 8 -7 14 -30 14 -55 0
-35 5 -49 25 -66 28 -24 32 -50 12 -67 -16 -12 -40 9 -51 44 -3 11 -42 58 -86
104 -44 46 -80 90 -80 98 0 8 8 27 19 41 10 15 22 38 26 52 17 56 48 65 53 15z
m-2601 -3442 c-16 -16 -17 -15 -17 17 0 32 1 33 17 17 16 -16 16 -18 0 -34z
m181 -6 c12 -3 10 -5 -5 -6 -18 -1 -23 4 -22 22 1 15 3 17 6 5 2 -9 12 -19 21
-21z m72 -87 c0 -11 -4 -20 -10 -20 -5 0 -10 9 -10 20 0 11 5 20 10 20 6 0 10
-9 10 -20z m70 -70 c0 -5 -9 -10 -21 -10 -11 0 -17 5 -14 10 3 6 13 10 21 10
8 0 14 -4 14 -10z"/>
<path d="M2827 1930 c-14 -20 -17 -21 -23 -7 -8 23 -46 21 -61 -3 -7 -10 -9
-21 -5 -24 5 -3 14 -27 22 -55 18 -67 37 -74 38 -13 1 53 17 74 50 66 15 -4
22 -14 22 -30 0 -13 -4 -24 -10 -24 -5 0 -10 -6 -10 -14 0 -8 -4 -16 -9 -18
-5 -1 -3 -12 5 -22 14 -19 14 -19 14 2 0 15 5 20 15 16 8 -4 15 -1 15 5 0 6 7
11 15 11 8 0 15 -6 15 -12 0 -7 4 -20 9 -27 8 -12 13 -11 28 8 16 20 23 22 41
12 31 -17 40 -14 74 22 18 19 28 25 24 14 -3 -11 -2 -16 4 -12 6 3 10 26 10
51 0 41 -2 45 -22 42 -13 -2 -26 -7 -30 -13 -4 -6 -8 -2 -8 8 0 19 -2 20 -52
8 -21 -5 -37 -6 -36 -2 3 26 -6 31 -52 31 -41 0 -50 -3 -51 -17 0 -16 -1 -16
-8 1 -7 18 -8 18 -24 -4z m83 -10 c0 -5 -4 -10 -9 -10 -5 0 -12 -8 -14 -17 -3
-11 -5 -7 -6 10 -1 18 4 27 14 27 8 0 15 -4 15 -10z m120 -60 c0 -13 1 -13 10
0 8 13 10 12 10 -2 0 -10 -7 -18 -15 -18 -8 0 -15 -5 -15 -11 0 -8 -4 -8 -15
1 -8 6 -19 9 -25 5 -6 -4 -10 4 -10 19 0 22 4 25 30 23 19 -1 30 -8 30 -17z"/>
<path d="M3191 1924 c0 -11 3 -14 6 -6 3 7 2 16 -1 19 -3 4 -6 -2 -5 -13z"/>
<path d="M3122 1820 c0 -14 2 -19 5 -12 2 6 2 18 0 25 -3 6 -5 1 -5 -13z"/>
<path d="M2598 1023 c-5 -21 17 -42 30 -28 3 3 0 5 -6 5 -6 0 -12 10 -14 23
l-3 22 -7 -22z"/>
</g></g>
<g id="icon-orange"><g fill="#F6A51A" stroke="none" transform="translate(0.000000,684.000000) scale(0.100000,-0.100000)">
<path d="M4623 3790 c-114 -17 -185 -60 -219 -134 -36 -78 -39 -124 -16 -203
16 -52 31 -78 64 -110 54 -52 82 -63 166 -63 92 0 132 13 173 57 68 72 81 104
81 199 0 75 -3 90 -26 124 -14 22 -26 46 -26 54 0 9 -30 30 -67 48 -82 40 -68
37 -130 28z"/>
</g></g>
</g><g id="wordmark" transform="translate(688 0)">
<g id="wordmark-navy"><g fill="#092743" stroke="none" transform="translate(0.000000,684.000000) scale(0.100000,-0.100000)">
<path d="M3539 4796 c-3 -3 -58 -10 -122 -15 -76 -7 -125 -15 -139 -25 -12 -9
-33 -16 -47 -16 -13 0 -42 -8 -65 -19 -23 -10 -52 -24 -66 -30 -14 -6 -34 -16
-45 -23 -62 -39 -101 -65 -116 -78 -9 -8 -33 -28 -54 -45 -47 -38 -133 -147
-147 -186 -5 -16 -14 -29 -19 -29 -4 0 -11 -17 -15 -37 -4 -21 -14 -46 -23
-57 -24 -27 -24 -377 0 -421 9 -16 22 -41 28 -55 50 -107 117 -184 219 -254
38 -25 73 -46 79 -46 5 0 20 -9 33 -20 13 -11 33 -20 45 -20 13 0 28 -7 35
-15 7 -8 28 -17 49 -21 20 -3 46 -13 58 -20 13 -8 44 -17 70 -21 27 -3 59 -12
73 -19 14 -7 59 -17 99 -22 39 -6 78 -15 85 -21 7 -6 39 -13 72 -17 32 -3 69
-12 81 -20 12 -7 41 -16 65 -20 24 -4 50 -13 59 -20 8 -8 30 -17 47 -20 18 -4
32 -11 32 -15 0 -5 11 -15 25 -21 14 -6 39 -33 55 -60 38 -61 41 -136 9 -198
-23 -44 -89 -103 -129 -115 -14 -4 -33 -15 -44 -24 -15 -13 -47 -16 -211 -16
-166 0 -195 2 -211 17 -11 9 -32 20 -48 24 -51 12 -146 89 -146 117 0 6 -7 18
-15 27 -9 10 -18 35 -20 56 -8 60 -25 103 -45 114 -20 11 -497 14 -524 4 -21
-8 -23 -162 -2 -202 7 -15 16 -46 19 -70 3 -24 12 -51 21 -61 9 -10 16 -27 16
-39 0 -12 9 -31 20 -42 11 -11 20 -23 20 -27 1 -37 139 -182 222 -235 88 -55
92 -58 118 -69 14 -6 42 -19 62 -30 20 -10 50 -19 65 -19 16 0 38 -7 50 -15
12 -8 61 -19 110 -25 48 -5 106 -14 128 -20 63 -15 311 -12 375 5 30 8 75 15
100 15 25 1 63 8 85 16 22 9 55 19 74 24 19 5 48 15 65 23 17 8 42 20 56 26
64 28 141 83 203 145 83 83 167 221 167 273 0 13 7 40 16 61 22 51 24 274 2
317 -8 17 -18 50 -22 74 -4 24 -16 55 -26 69 -11 13 -20 28 -20 33 0 18 -54
85 -119 148 -89 84 -99 93 -132 111 -96 52 -154 80 -168 80 -9 0 -26 7 -38 15
-12 8 -43 18 -70 21 -26 4 -58 13 -70 20 -12 8 -52 18 -88 23 -37 5 -72 15
-79 20 -7 6 -44 15 -82 20 -38 5 -82 16 -99 25 -16 9 -46 16 -66 16 -20 0 -42
7 -49 15 -7 8 -28 17 -48 21 -46 9 -99 45 -138 94 -30 38 -31 44 -28 113 2 60
8 81 29 113 15 21 37 45 51 52 13 7 24 16 24 21 0 5 16 12 36 16 20 3 43 12
50 19 32 32 324 28 380 -5 17 -11 38 -19 46 -19 21 0 105 -81 113 -110 4 -14
14 -34 21 -45 8 -11 14 -32 14 -47 0 -50 16 -55 192 -63 220 -10 346 -4 359
15 15 22 5 172 -14 201 -8 13 -18 42 -22 64 -4 22 -13 47 -20 55 -7 8 -16 26
-20 40 -4 14 -14 32 -21 40 -8 8 -36 43 -64 78 -28 34 -63 70 -78 79 -15 9
-31 21 -37 27 -15 16 -90 66 -99 66 -4 0 -19 9 -33 20 -14 11 -34 20 -43 20
-10 0 -23 7 -30 15 -7 8 -28 17 -49 20 -20 3 -52 13 -71 22 -51 22 -415 56
-431 39z"/>
<path d="M13727 4780 c-43 -4 -84 -13 -90 -19 -15 -15 154 -7 183 9 23 12 165
13 188 1 28 -15 199 -25 186 -11 -24 25 -294 36 -467 20z"/>
<path d="M955 4760 c-70 -10 -83 -17 -90 -53 -4 -18 -13 -41 -20 -53 -8 -12
-17 -39 -20 -60 -4 -21 -13 -48 -20 -59 -7 -11 -16 -36 -20 -54 -4 -19 -16
-48 -26 -65 -10 -17 -19 -43 -19 -57 0 -15 -7 -32 -15 -39 -7 -6 -17 -31 -21
-55 -3 -25 -12 -49 -19 -55 -8 -6 -16 -30 -20 -53 -4 -23 -13 -51 -20 -62 -7
-11 -16 -36 -20 -55 -4 -19 -16 -51 -26 -70 -11 -19 -19 -43 -19 -53 0 -10 -9
-35 -20 -57 -11 -22 -20 -50 -20 -63 0 -14 -6 -30 -14 -36 -8 -7 -18 -31 -22
-54 -3 -23 -15 -58 -25 -77 -11 -19 -19 -47 -19 -61 0 -15 -6 -32 -14 -38 -8
-7 -18 -31 -22 -54 -3 -23 -15 -58 -25 -77 -11 -19 -19 -42 -19 -50 0 -9 -9
-33 -20 -55 -11 -22 -20 -47 -20 -57 0 -10 -9 -35 -20 -55 -11 -21 -20 -50
-20 -64 0 -15 -6 -32 -14 -38 -8 -7 -18 -31 -22 -54 -3 -23 -15 -58 -25 -77
-11 -19 -19 -45 -19 -57 0 -13 -9 -40 -20 -60 -11 -21 -20 -50 -20 -64 0 -15
-6 -32 -14 -38 -8 -7 -17 -28 -21 -49 -4 -20 -15 -51 -26 -68 -10 -17 -19 -41
-19 -53 0 -11 -9 -38 -20 -58 -11 -21 -20 -49 -20 -63 0 -14 -7 -35 -15 -47
-8 -11 -17 -39 -21 -62 -12 -72 -18 -71 298 -71 l279 0 24 24 c13 13 27 41 30
62 4 22 16 57 26 80 10 22 19 50 19 61 0 11 9 40 20 64 11 24 20 55 20 69 0
14 6 34 14 45 7 11 19 44 25 74 6 30 16 61 23 68 15 19 871 19 886 1 5 -7 13
-29 17 -48 4 -19 13 -44 20 -55 7 -11 16 -39 20 -62 4 -24 10 -45 15 -48 4 -3
14 -28 20 -56 7 -29 19 -64 26 -78 8 -14 14 -34 14 -44 0 -29 58 -144 75 -151
21 -8 558 -8 579 0 21 8 22 87 2 103 -8 6 -17 31 -20 56 -4 24 -14 49 -21 55
-8 7 -15 24 -15 37 0 14 -9 42 -19 62 -19 35 -41 97 -62 171 -5 19 -16 46 -23
60 -8 14 -17 44 -21 67 -3 23 -13 47 -21 54 -8 6 -14 21 -14 33 0 12 -9 39
-20 61 -11 22 -20 48 -20 60 0 11 -9 34 -19 51 -10 17 -22 46 -26 65 -4 18
-13 43 -21 54 -7 11 -16 37 -19 57 -4 21 -13 42 -21 49 -8 6 -14 23 -14 38 0
14 -8 40 -18 56 -11 17 -22 48 -26 69 -4 21 -13 48 -21 60 -7 12 -16 37 -20
56 -4 19 -14 44 -21 55 -8 11 -14 29 -14 40 0 11 -9 38 -19 58 -11 21 -22 56
-26 77 -4 21 -13 44 -21 51 -8 6 -14 23 -14 38 0 14 -9 40 -19 57 -10 17 -22
46 -26 65 -4 18 -13 43 -21 54 -7 11 -16 37 -19 57 -4 21 -13 42 -21 49 -8 6
-14 22 -14 36 0 13 -9 41 -20 63 -11 22 -20 46 -20 55 0 9 -7 32 -17 53 -9 20
-22 55 -29 77 -27 89 -48 141 -60 155 -7 8 -15 27 -19 42 -5 18 -17 30 -37 37
-34 12 -539 13 -623 1z m305 -666 c0 -19 9 -52 19 -72 22 -41 47 -113 63 -182
6 -25 14 -50 19 -56 5 -7 16 -34 23 -60 24 -81 47 -148 62 -176 8 -14 14 -37
14 -50 0 -12 9 -43 20 -67 11 -24 20 -51 20 -60 0 -9 7 -29 15 -45 8 -15 15
-31 15 -35 0 -3 -124 -6 -275 -6 l-275 0 0 31 c0 17 7 37 15 44 8 7 18 34 21
61 4 27 12 54 20 60 7 6 16 31 20 55 3 24 15 61 25 81 11 21 19 47 19 58 0 11
9 38 20 60 11 22 20 51 20 65 0 14 9 43 20 65 11 22 20 49 20 62 0 12 9 37 20
55 11 18 20 45 20 59 0 34 19 89 31 89 5 0 9 -16 9 -36z"/>
<path d="M4912 4752 c-18 -18 -19 -60 -26 -823 -5 -544 -3 -821 4 -858 5 -29
10 -72 10 -95 1 -22 8 -59 16 -81 9 -22 20 -58 25 -80 6 -22 16 -47 23 -55 8
-8 17 -26 21 -39 19 -62 126 -193 205 -251 34 -25 73 -55 87 -67 14 -13 32
-23 40 -23 8 0 26 -9 40 -20 14 -11 34 -20 43 -20 10 0 23 -7 30 -15 7 -8 28
-17 49 -20 20 -4 54 -15 77 -26 23 -10 61 -19 86 -19 25 0 67 -7 94 -15 68
-20 319 -20 397 0 32 8 76 15 99 15 22 0 59 9 82 19 23 11 58 22 79 26 20 3
37 10 37 15 0 5 17 14 39 20 21 5 44 17 51 24 6 8 25 18 41 21 16 4 29 11 29
16 0 5 8 12 18 16 55 20 234 212 247 266 4 14 13 28 20 31 7 2 16 20 20 38 4
18 16 49 26 68 11 19 19 50 19 68 0 18 7 49 16 70 15 33 17 120 15 907 -2 866
-2 870 -23 888 -18 15 -47 17 -278 17 -226 0 -259 -2 -271 -16 -11 -14 -14
-168 -14 -869 0 -771 -2 -855 -16 -871 -9 -11 -19 -31 -23 -46 -7 -32 -126
-158 -148 -158 -9 0 -21 -7 -28 -15 -7 -8 -23 -15 -36 -15 -14 0 -50 -9 -81
-20 -77 -27 -185 -27 -253 0 -28 11 -61 20 -73 21 -56 1 -224 166 -226 221 -1
10 -8 39 -17 65 -15 43 -17 138 -18 861 -1 793 -1 814 -20 828 -16 11 -69 14
-268 14 -228 0 -250 -2 -266 -18z"/>
<path d="M7363 4760 c-12 -5 -26 -18 -32 -29 -12 -21 -17 -2414 -6 -2444 4 -8
16 -18 28 -21 39 -10 507 -7 528 4 18 10 19 25 19 355 l0 345 40 57 c37 53
100 128 171 203 l32 33 19 -24 c10 -13 30 -44 45 -69 14 -25 31 -49 37 -55 18
-16 66 -90 66 -101 0 -5 8 -17 18 -26 35 -35 52 -55 52 -63 0 -11 49 -83 73
-107 9 -10 17 -25 17 -33 0 -8 4 -15 8 -15 10 0 72 -93 72 -108 0 -6 6 -15 13
-19 17 -11 67 -86 67 -101 0 -7 4 -12 8 -12 9 0 72 -92 72 -104 0 -11 44 -70
63 -84 9 -7 17 -20 17 -28 0 -8 15 -23 33 -34 30 -19 51 -20 335 -20 199 0
310 4 324 11 30 16 17 50 -53 136 -32 41 -59 80 -59 87 0 8 -7 19 -15 26 -13
10 -65 85 -155 219 -14 21 -44 60 -68 88 -23 28 -42 53 -42 56 0 7 -49 80 -58
87 -13 10 -52 69 -52 80 0 5 -8 18 -17 28 -10 9 -40 51 -68 92 -27 41 -55 79
-62 83 -7 4 -13 14 -13 21 0 7 -20 39 -45 70 -25 32 -45 62 -45 67 0 5 -8 18
-17 28 -10 11 -26 30 -35 43 -10 13 -27 35 -38 50 -11 14 -20 31 -20 37 0 5
-11 22 -25 37 -14 15 -25 31 -25 36 0 11 156 203 217 266 25 26 53 60 63 75
18 29 100 127 136 162 11 11 51 58 90 105 38 46 76 92 84 100 64 69 169 189
190 218 14 19 45 54 69 78 35 36 44 52 45 82 l1 37 -290 3 c-159 1 -305 0
-324 -3 -35 -7 -73 -41 -166 -150 -27 -33 -59 -69 -71 -80 -11 -11 -52 -58
-90 -105 -79 -97 -120 -145 -150 -174 -11 -12 -58 -68 -104 -126 -45 -58 -89
-110 -96 -116 -8 -6 -36 -40 -64 -75 -72 -91 -110 -136 -152 -183 -21 -22 -38
-44 -38 -48 0 -4 -4 -8 -10 -8 -7 0 -10 180 -10 519 0 459 -2 521 -16 535 -13
14 -50 16 -257 15 -133 0 -252 -4 -264 -9z"/>
<path d="M10468 4758 c-29 -8 -38 -16 -43 -38 -3 -15 -15 -45 -26 -66 -10 -21
-19 -45 -19 -53 0 -8 -6 -22 -14 -30 -7 -9 -18 -34 -24 -56 -17 -63 -43 -136
-63 -181 -11 -22 -19 -50 -19 -62 0 -12 -9 -36 -20 -54 -11 -18 -20 -42 -20
-53 0 -12 -9 -38 -20 -60 -11 -22 -20 -51 -20 -66 0 -15 -6 -32 -14 -38 -8 -7
-17 -28 -21 -49 -3 -20 -12 -46 -19 -57 -8 -11 -17 -36 -21 -55 -4 -19 -13
-44 -20 -55 -7 -11 -16 -36 -20 -55 -4 -19 -16 -51 -26 -70 -11 -19 -19 -47
-19 -61 0 -15 -7 -32 -15 -39 -7 -6 -17 -31 -21 -55 -3 -25 -12 -49 -19 -55
-8 -6 -16 -30 -20 -53 -4 -23 -13 -51 -20 -62 -7 -11 -16 -36 -20 -55 -4 -19
-13 -44 -20 -56 -8 -12 -17 -39 -21 -60 -4 -21 -15 -52 -26 -69 -10 -16 -18
-40 -18 -53 0 -12 -9 -39 -20 -59 -11 -21 -20 -47 -20 -58 0 -12 -9 -38 -20
-60 -11 -22 -20 -47 -20 -57 0 -10 -9 -35 -20 -55 -11 -21 -20 -47 -20 -58 0
-11 -6 -29 -14 -40 -7 -11 -17 -36 -21 -55 -4 -19 -13 -44 -20 -55 -7 -11 -16
-36 -20 -55 -4 -19 -15 -53 -25 -75 -27 -57 -36 -135 -19 -146 15 -10 531 -12
566 -3 22 6 73 104 73 141 0 10 9 36 20 58 11 22 20 49 20 61 0 12 9 41 20 65
11 24 20 56 20 70 0 14 7 34 15 45 8 10 17 40 21 67 l7 47 442 0 c499 0 466 5
479 -80 4 -24 13 -51 20 -60 7 -8 16 -34 20 -58 4 -24 13 -53 20 -65 8 -12 17
-40 21 -61 4 -22 13 -49 21 -60 8 -11 14 -30 14 -41 0 -11 12 -43 27 -72 21
-43 32 -54 57 -58 17 -3 155 -4 306 -3 l275 3 3 32 c2 18 -4 43 -12 55 -9 12
-16 32 -16 43 0 11 -9 37 -20 58 -11 20 -20 45 -20 55 0 9 -8 33 -19 52 -10
19 -22 54 -25 77 -4 23 -13 47 -21 53 -7 6 -16 30 -19 55 -4 24 -14 49 -21 55
-8 7 -15 24 -15 39 0 14 -9 41 -20 59 -11 18 -20 43 -20 55 0 13 -9 40 -20 62
-11 22 -20 46 -20 55 0 8 -8 31 -19 50 -10 19 -22 54 -25 77 -4 23 -14 47 -22
54 -8 6 -14 21 -14 33 0 11 -9 35 -19 52 -10 17 -22 46 -26 65 -4 19 -14 43
-21 54 -8 11 -14 29 -14 40 0 11 -9 37 -20 58 -11 20 -20 45 -20 55 0 10 -9
35 -20 57 -11 22 -20 48 -20 60 0 11 -8 34 -18 50 -11 17 -22 48 -26 69 -4 21
-13 48 -21 60 -7 12 -16 37 -20 56 -4 19 -13 42 -20 50 -7 8 -16 34 -20 57 -3
23 -13 47 -21 54 -8 6 -14 23 -14 38 0 14 -9 40 -19 57 -10 17 -22 46 -26 65
-4 19 -11 39 -15 44 -5 6 -14 33 -21 60 -7 28 -18 59 -25 70 -6 11 -15 39 -19
62 -4 23 -13 47 -21 54 -8 6 -14 21 -14 33 0 11 -11 44 -25 71 -13 28 -25 55
-25 61 -1 30 -54 35 -359 33 -168 -1 -323 -6 -343 -11z m346 -664 c3 -9 6 -27
6 -41 0 -14 8 -40 19 -57 10 -17 22 -49 26 -70 3 -21 12 -48 20 -60 7 -12 16
-40 20 -63 4 -24 10 -45 15 -48 4 -3 14 -29 20 -57 7 -29 16 -58 21 -63 4 -6
13 -33 20 -60 7 -28 18 -59 25 -70 6 -11 15 -38 19 -60 4 -22 13 -47 20 -55 7
-8 16 -34 20 -58 l7 -42 -269 2 -268 3 3 35 c1 19 9 44 17 56 7 12 17 39 20
60 4 21 13 48 20 60 8 12 17 39 20 60 4 21 13 48 20 60 8 12 17 39 20 60 4 21
13 48 20 60 8 12 17 39 20 60 4 21 13 48 20 60 8 12 17 39 21 60 4 21 15 55
25 74 11 19 19 49 19 66 0 43 21 61 34 28z"/>
<path d="M17223 4763 c-52 -3 -65 -8 -75 -26 -10 -17 -14 -212 -16 -877 -1
-470 -5 -875 -8 -900 -5 -39 -8 -42 -15 -22 -5 12 -15 22 -23 22 -9 0 -22 13
-31 29 -8 17 -19 32 -24 35 -16 10 0 -31 20 -53 10 -11 19 -25 19 -31 0 -6 7
-13 15 -16 8 -4 15 -14 15 -23 0 -9 9 -27 20 -41 19 -24 21 -24 34 -7 14 18
11 52 -6 73 -10 13 -10 1343 0 1359 6 9 8 68 15 347 2 103 14 119 82 111 37
-4 171 5 163 12 -7 6 -127 11 -185 8z"/>
<path d="M18765 4760 c-346 -3 -619 -8 -605 -12 14 -3 271 -7 572 -7 360 0
555 -4 567 -11 14 -7 22 -7 26 0 4 6 23 10 43 10 20 -1 65 2 98 6 58 6 63 5
77 -17 20 -31 19 -241 -1 -261 -9 -9 -60 -13 -175 -15 -89 0 -180 -1 -202 -2
-22 0 -78 0 -125 0 -463 5 -652 1 -669 -16 -14 -14 -16 -734 -3 -747 7 -7 202
-10 555 -9 515 1 546 1 551 -16 10 -30 -9 -270 -22 -286 -10 -12 -48 -14 -235
-10 -122 2 -256 0 -297 -5 -57 -8 0 -9 237 -8 241 1 315 4 325 14 20 20 24
280 5 306 -14 19 -31 20 -548 18 -294 -1 -540 2 -547 6 -9 7 -12 87 -10 368
l3 359 25 1 c14 1 274 2 578 3 538 1 553 2 572 21 18 18 20 33 20 148 0 92 -4
133 -13 147 -17 22 19 22 -802 15z"/>
<path d="M15480 4740 c-20 -20 -20 -33 -20 -1230 l0 -1210 21 -21 c19 -19 30
-20 169 -17 105 2 153 7 162 16 22 22 -8 30 -60 17 -49 -13 -247 -13 -260 -1
-4 4 -8 549 -10 1211 l-3 1203 23 22 c20 19 33 20 146 19 68 0 126 2 129 5 4
3 -57 6 -135 6 -129 0 -144 -2 -162 -20z"/>
<path d="M17440 4749 c13 -6 28 -15 32 -22 4 -7 7 -556 7 -1220 0 -1133 -1
-1208 -17 -1215 -9 -4 -78 -6 -152 -6 -135 1 -180 10 -180 37 0 8 -14 26 -30
42 -17 16 -43 52 -59 80 -16 27 -41 61 -55 74 -14 14 -26 32 -26 42 0 9 -17
35 -39 57 -21 22 -44 48 -50 58 -6 11 -11 14 -11 7 0 -6 17 -33 38 -60 34 -43
56 -76 87 -124 5 -9 24 -36 42 -60 18 -24 43 -59 55 -77 13 -19 36 -48 53 -65
l29 -32 147 -3 c138 -3 149 -2 168 17 l21 21 0 1211 c0 815 -3 1217 -10 1230
-7 13 -21 19 -43 18 -31 0 -31 -1 -7 -10z"/>
<path d="M18040 4740 c-20 -20 -20 -33 -20 -1230 0 -1200 0 -1210 20 -1230 20
-20 30 -20 776 -18 735 3 756 4 770 22 20 29 17 39 -5 17 -19 -19 -39 -19
-768 -15 -685 4 -749 6 -760 21 -10 13 -13 272 -13 1204 0 1175 0 1187 20
1212 11 14 33 28 48 30 21 3 19 4 -10 6 -26 1 -44 -5 -58 -19z"/>
<path d="M13565 4741 c-39 -7 -85 -27 -85 -37 0 -2 9 0 20 6 11 6 24 9 29 6
10 -6 71 12 86 25 10 10 10 10 -50 0z"/>
<path d="M14229 4737 c5 -5 31 -13 56 -17 60 -9 44 7 -19 19 -33 6 -45 6 -37
-2z"/>
<path d="M15805 4733 c11 -10 28 -27 38 -38 10 -11 15 -13 11 -5 -11 24 -46
60 -58 60 -6 0 -1 -8 9 -17z"/>
<path d="M14352 4695 c7 -7 26 -16 42 -19 25 -6 28 -5 17 7 -6 8 -25 17 -42
19 -24 4 -27 2 -17 -7z"/>
<path d="M13417 4680 c-14 -11 -32 -20 -40 -20 -8 0 -26 -9 -40 -20 -14 -11
-30 -20 -36 -20 -7 0 -14 -7 -18 -15 -3 -9 -18 -22 -34 -30 -33 -17 -152 -126
-145 -132 3 -3 22 13 42 36 21 23 46 41 56 41 10 0 18 6 18 14 0 8 12 18 28
24 15 5 43 26 62 46 19 20 44 36 56 36 11 0 29 9 39 20 10 11 26 20 36 20 10
0 21 5 24 10 11 17 -21 11 -48 -10z"/>
<path d="M15860 4667 c0 -16 29 -62 54 -86 32 -30 34 -14 4 22 -13 14 -31 36
-40 49 -9 13 -17 19 -18 15z"/>
<path d="M14445 4650 c3 -5 15 -10 26 -10 10 0 24 -9 31 -20 7 -11 18 -20 24
-20 9 0 43 -28 124 -103 39 -36 147 -155 162 -180 10 -15 18 -34 18 -42 0 -7
11 -22 25 -33 14 -11 25 -25 25 -32 0 -7 6 -26 14 -43 7 -18 18 -44 24 -59 16
-40 34 -36 20 5 -6 17 -16 39 -23 47 -7 8 -16 25 -20 38 -14 48 -130 205 -210
285 -45 46 -114 104 -152 130 -65 44 -102 60 -88 37z"/>
<path d="M15950 4530 c1 -8 26 -42 56 -75 38 -41 48 -49 31 -24 -38 59 -87
115 -87 99z"/>
<path d="M13820 4470 c-16 -5 16 -8 93 -9 90 -1 131 -6 174 -21 32 -11 66 -20
78 -20 11 0 34 -9 50 -20 17 -11 36 -20 43 -20 31 0 162 -109 222 -183 44 -56
62 -68 40 -26 -18 33 -177 189 -193 189 -8 0 -26 9 -40 20 -14 11 -32 20 -41
20 -9 0 -24 9 -33 20 -11 12 -30 20 -50 20 -18 0 -64 8 -101 19 -70 19 -199
25 -242 11z"/>
<path d="M13653 4430 c-35 -21 -46 -38 -14 -20 11 5 28 10 38 10 10 1 32 7 48
15 l30 13 -35 1 c-19 1 -50 -8 -67 -19z"/>
<path d="M13048 4380 c-13 -17 -33 -42 -45 -57 -13 -14 -23 -31 -23 -38 0 -7
-6 -18 -14 -24 -8 -7 -19 -26 -25 -43 -9 -26 -9 -29 4 -18 8 6 17 21 21 32 3
11 25 46 48 77 43 59 69 101 62 101 -3 0 -15 -14 -28 -30z"/>
<path d="M13565 4390 c-8 -13 15 -13 35 0 12 8 11 10 -7 10 -12 0 -25 -4 -28
-10z"/>
<path d="M16066 4374 c3 -12 24 -41 46 -65 22 -25 34 -34 28 -21 -6 13 -18 31
-26 40 -8 9 -24 28 -34 42 -17 23 -18 23 -14 4z"/>
<path d="M13490 4351 c0 -5 -22 -26 -50 -47 -27 -21 -48 -40 -45 -42 2 -3 26
14 53 37 28 22 55 41 60 41 6 0 14 5 17 10 3 6 -3 10 -14 10 -12 0 -21 -4 -21
-9z"/>
<path d="M16150 4253 c0 -5 16 -27 35 -49 19 -21 34 -34 34 -29 0 6 -15 28
-34 49 -19 22 -35 35 -35 29z"/>
<path d="M13297 4159 c-15 -17 -27 -39 -27 -49 0 -11 -5 -22 -11 -25 -14 -9
-59 -113 -59 -136 0 -11 -4 -19 -8 -19 -4 0 -14 -21 -21 -47 -7 -27 -18 -62
-24 -79 -5 -17 -7 -40 -3 -50 7 -15 11 -10 22 26 7 25 14 56 14 70 0 37 38
130 109 268 8 15 18 29 23 30 12 5 30 42 21 42 -5 0 -21 -14 -36 -31z"/>
<path d="M12901 4145 c-6 -22 -18 -49 -26 -59 -8 -11 -15 -33 -15 -48 0 -16
-7 -42 -15 -58 -9 -17 -22 -67 -30 -112 -14 -81 -14 -116 0 -61 3 15 11 30 16
34 12 7 20 42 21 97 1 23 7 47 15 53 7 6 13 28 13 49 0 22 9 51 23 72 16 22
21 41 17 53 -6 16 -10 13 -19 -20z"/>
<path d="M15805 4148 c-3 -7 -3 -49 0 -93 3 -44 7 -451 10 -904 2 -453 7 -826
10 -829 3 -3 5 396 5 888 0 491 1 895 3 897 3 2 19 -17 38 -43 19 -25 42 -54
51 -64 9 -10 21 -28 28 -39 11 -21 30 -29 30 -13 0 5 -20 31 -45 58 -25 27
-48 60 -52 74 -5 22 -55 80 -69 80 -3 0 -7 -6 -9 -12z"/>
<path d="M14541 4101 c10 -29 39 -62 39 -45 0 11 -38 74 -44 74 -3 0 0 -13 5
-29z"/>
<path d="M16269 4081 c14 -25 71 -85 71 -74 0 6 -9 18 -20 28 -11 10 -22 26
-25 35 -3 10 -12 21 -21 24 -11 4 -12 2 -5 -13z"/>
<path d="M14954 4050 c3 -14 6 -34 6 -46 0 -11 6 -29 14 -39 12 -16 13 -13 7
26 -4 24 -13 53 -20 64 -12 19 -12 18 -7 -5z"/>
<path d="M14580 4029 c0 -8 7 -24 15 -35 11 -15 14 -16 15 -3 0 8 -7 24 -15
35 -11 15 -14 16 -15 3z"/>
<path d="M16350 3973 c0 -7 11 -25 24 -40 14 -16 37 -41 51 -58 22 -25 21 -23
-4 15 -45 66 -71 97 -71 83z"/>
<path d="M14624 3918 c7 -29 18 -62 25 -73 13 -20 13 -20 6 0 -4 11 -10 39
-12 62 -3 24 -11 48 -19 53 -10 9 -10 1 0 -42z"/>
<path d="M14996 3870 c4 -36 10 -69 15 -74 5 -6 9 -19 9 -30 0 -10 2 -17 5
-14 8 8 -14 161 -25 172 -7 7 -8 -11 -4 -54z"/>
<path d="M16021 3861 c59 -79 86 -117 134 -186 7 -11 16 -17 20 -13 4 4 2 13
-4 20 -58 70 -81 102 -81 114 0 8 -16 30 -35 49 -37 38 -56 47 -34 16z"/>
<path d="M16458 3822 c4 -10 27 -41 52 -68 24 -27 36 -38 27 -24 -10 14 -28
41 -42 62 -28 42 -48 59 -37 30z"/>
<path d="M14661 3785 c0 -48 23 -183 33 -192 3 -4 4 7 1 23 -2 16 -7 63 -10
104 -7 84 -25 132 -24 65z"/>
<path d="M12785 3643 c-9 -153 -1 -366 15 -408 7 -16 16 -57 20 -89 12 -78 30
-98 24 -26 -2 30 -13 72 -24 95 -17 36 -20 61 -19 210 0 218 -2 339 -6 343 -1
2 -6 -54 -10 -125z"/>
<path d="M15031 3714 c0 -11 3 -14 6 -6 3 7 2 16 -1 19 -3 4 -6 -2 -5 -13z"/>
<path d="M13141 3704 c0 -11 3 -14 6 -6 3 7 2 16 -1 19 -3 4 -6 -2 -5 -13z"/>
<path d="M16550 3696 c0 -15 29 -62 49 -80 31 -28 25 -4 -10 40 -38 48 -39 49
-39 40z"/>
<path d="M15035 3498 c0 -105 3 -173 7 -152 9 53 10 332 1 337 -5 3 -8 -81 -8
-185z"/>
<path d="M16192 3629 c7 -12 18 -29 23 -38 25 -42 75 -95 75 -79 0 9 -18 36
-40 59 -22 24 -43 51 -46 61 -3 10 -10 18 -15 18 -5 0 -4 -10 3 -21z"/>
<path d="M13126 3624 c-10 -25 -7 -198 4 -214 7 -10 10 25 10 108 0 67 -2 122
-4 122 -2 0 -7 -7 -10 -16z"/>
<path d="M14694 3485 c0 -55 1 -76 3 -47 2 29 2 74 0 100 -2 26 -3 2 -3 -53z"/>
<path d="M16640 3571 c0 -6 4 -13 10 -16 6 -3 7 1 4 9 -7 18 -14 21 -14 7z"/>
<path d="M16660 3531 c0 -4 19 -28 42 -52 23 -24 34 -33 25 -19 -10 14 -22 35
-29 47 -11 22 -38 39 -38 24z"/>
<path d="M16300 3472 c0 -6 9 -21 20 -34 11 -12 29 -34 40 -48 l20 -25 -10 28
c-10 30 -70 96 -70 79z"/>
<path d="M16750 3403 c0 -13 12 -30 30 -43 17 -12 30 -28 30 -36 0 -8 5 -14
10 -14 6 0 10 -7 10 -15 0 -8 14 -30 30 -48 17 -19 30 -40 30 -46 0 -6 11 -21
25 -33 14 -12 25 -29 25 -37 1 -16 68 -96 76 -89 2 2 -19 35 -46 73 -28 39
-57 84 -66 100 -10 17 -22 35 -29 40 -6 6 -28 35 -48 65 -20 30 -45 66 -56 80
-20 25 -21 25 -21 3z"/>
<path d="M18371 3362 c-6 -12 -11 -157 -12 -397 -1 -431 -5 -412 77 -397 48
10 40 14 -26 16 l-25 1 0 385 0 385 155 3 c209 3 230 9 40 11 -85 1 -165 4
-177 7 -15 4 -24 0 -32 -14z"/>
<path d="M14671 3298 c-7 -40 -21 -100 -31 -133 -22 -66 -26 -100 -10 -90 6 3
10 19 10 36 0 16 5 38 10 49 6 11 14 29 19 39 11 22 27 171 18 171 -3 0 -10
-33 -16 -72z"/>
<path d="M18785 3360 c-13 -5 -14 -9 -5 -9 8 0 24 4 35 9 13 5 14 9 5 9 -8 0
-24 -4 -35 -9z"/>
<path d="M16394 3338 c9 -13 21 -33 28 -45 11 -22 38 -39 38 -24 0 12 -63 90
-74 90 -5 1 -1 -9 8 -21z"/>
<path d="M13148 3288 c-4 -9 -5 -24 -3 -35 2 -10 7 -35 10 -55 7 -47 25 -50
24 -5 -1 48 -23 116 -31 95z"/>
<path d="M15020 3286 c0 -9 -6 -29 -14 -44 -7 -15 -16 -60 -18 -101 -5 -72 -5
-73 9 -40 15 35 36 189 28 198 -3 2 -5 -3 -5 -13z"/>
<path d="M16470 3220 c0 -5 5 -10 11 -10 5 0 7 5 4 10 -3 6 -8 10 -11 10 -2 0
-4 -4 -4 -10z"/>
<path d="M16504 3178 c9 -13 32 -48 53 -78 20 -30 43 -62 50 -70 7 -8 22 -26
34 -40 l20 -25 -15 32 c-9 17 -28 45 -43 62 -16 16 -37 47 -48 68 -23 46 -45
73 -58 73 -5 0 -2 -10 7 -22z"/>
<path d="M13186 3130 c22 -95 34 -124 34 -79 0 13 -9 42 -20 64 -12 24 -18 30
-14 15z"/>
<path d="M12856 3025 c3 -22 14 -58 24 -80 10 -22 22 -49 26 -60 4 -13 8 -15
11 -7 3 6 -5 32 -16 55 -12 24 -21 52 -21 63 -1 10 -7 30 -15 44 -14 24 -14
24 -9 -15z"/>
<path d="M14602 3048 c-7 -7 -12 -16 -12 -22 0 -5 -12 -34 -26 -65 -34 -72
-128 -187 -193 -237 -28 -21 -51 -39 -51 -41 0 -33 209 176 235 235 10 23 22
42 26 42 8 0 43 90 37 95 -2 3 -10 -1 -16 -7z"/>
<path d="M14966 3025 c-4 -16 -12 -41 -17 -54 -16 -38 -3 -35 15 4 10 20 16
46 13 58 -3 19 -4 18 -11 -8z"/>
<path d="M13230 2996 c0 -8 5 -18 11 -22 6 -3 18 -23 27 -44 15 -34 94 -130
108 -130 3 0 -15 25 -40 56 -25 30 -56 78 -68 105 -23 48 -38 63 -38 35z"/>
<path d="M16666 2948 c3 -10 10 -18 14 -18 5 0 11 -8 15 -17 3 -10 22 -36 41
-58 36 -40 36 -40 17 -6 -22 40 -95 124 -87 99z"/>
<path d="M14893 2848 c-24 -47 -53 -99 -66 -114 -23 -29 -67 -101 -67 -110 0
-9 44 49 93 122 26 39 47 77 47 86 0 8 9 27 21 42 11 14 19 34 17 43 -2 10
-21 -20 -45 -69z"/>
<path d="M9140 2870 c0 -5 5 -10 10 -10 6 0 10 5 10 10 0 6 -4 10 -10 10 -5 0
-10 -4 -10 -10z"/>
<path d="M12940 2828 c0 -9 9 -26 20 -39 l21 -24 -17 35 c-21 43 -24 47 -24
28z"/>
<path d="M16780 2793 c0 -13 62 -93 72 -93 5 0 2 12 -6 28 -17 30 -66 79 -66
65z"/>
<path d="M13380 2786 c0 -2 7 -9 15 -16 9 -7 15 -8 15 -2 0 5 -7 12 -15 16 -8
3 -15 4 -15 2z"/>
<path d="M1640 2770 c0 -5 5 -10 11 -10 5 0 7 5 4 10 -3 6 -8 10 -11 10 -2 0
-4 -4 -4 -10z"/>
<path d="M12980 2749 c0 -7 9 -22 20 -34 11 -11 48 -56 82 -100 35 -44 99
-108 143 -142 44 -35 85 -67 91 -72 7 -6 28 -16 47 -24 19 -8 38 -20 41 -26 9
-14 36 -15 36 -1 0 6 -8 10 -17 10 -10 0 -29 9 -43 20 -14 11 -30 20 -36 20
-7 0 -15 7 -18 15 -3 9 -22 23 -41 31 -19 8 -35 19 -35 24 0 6 -5 10 -11 10
-15 0 -189 180 -189 196 0 7 -16 29 -35 50 -19 20 -35 31 -35 23z"/>
<path d="M13455 2718 c21 -18 50 -43 64 -55 13 -13 34 -23 47 -23 13 0 28 -9
34 -20 7 -13 21 -20 38 -20 15 0 45 -9 67 -20 34 -18 60 -20 207 -21 92 0 175
4 185 9 10 5 40 15 67 21 27 7 60 21 74 32 14 10 31 19 38 19 8 0 14 5 14 10
0 17 -30 11 -57 -10 -14 -11 -34 -20 -44 -20 -11 0 -36 -9 -56 -20 -34 -18
-57 -20 -218 -20 -161 0 -184 2 -218 20 -20 11 -43 20 -51 20 -20 0 -119 52
-129 67 -4 7 -14 13 -21 13 -8 0 -19 7 -26 16 -8 8 -23 20 -34 25 -12 6 -3 -5
19 -23z"/>
<path d="M14677 2545 c-36 -36 -70 -65 -75 -65 -5 0 -12 -7 -16 -15 -4 -12 -2
-13 12 -6 20 11 159 151 150 151 -3 0 -35 -29 -71 -65z"/>
<path d="M18493 2574 c8 -8 994 -10 1015 -2 9 4 -217 7 -502 7 -286 1 -517 -2
-513 -5z"/>
<path d="M19593 2405 c0 -44 2 -61 4 -37 2 23 2 59 0 80 -2 20 -4 1 -4 -43z"/>
<path d="M14522 2425 c-17 -14 -35 -25 -41 -25 -6 0 -11 -4 -11 -10 0 -17 26
-11 45 10 10 11 26 22 36 25 11 4 19 11 19 16 0 16 -17 10 -48 -16z"/>
<path d="M14413 2367 c-10 -6 -27 -19 -37 -29 -12 -11 -35 -18 -57 -18 -20 0
-42 -7 -49 -15 -10 -12 -6 -13 27 -8 21 3 52 14 69 24 17 11 38 19 46 19 8 0
22 8 31 18 14 15 14 19 3 19 -8 0 -23 -5 -33 -10z"/>
<path d="M13478 2318 c14 -14 92 -28 92 -17 0 8 -16 13 -73 22 -19 3 -25 1
-19 -5z"/>
<path d="M13605 2275 c17 -8 46 -14 65 -15 19 0 62 -7 95 -15 69 -17 231 -19
290 -5 22 6 71 14 109 19 38 5 74 15 80 21 17 18 -101 5 -142 -15 -59 -30
-341 -25 -378 6 -8 6 -44 13 -81 15 -65 4 -67 4 -38 -11z"/>
</g></g>
<g id="wordmark-teal"><g fill="#239D91" stroke="none" transform="translate(0.000000,684.000000) scale(0.100000,-0.100000)">
<path d="M13818 4770 c-9 -6 -54 -12 -100 -15 -45 -3 -98 -13 -116 -21 -19 -9
-49 -17 -67 -18 -19 -2 -45 -11 -59 -20 -14 -9 -32 -16 -39 -16 -8 0 -22 -9
-32 -20 -10 -11 -28 -20 -39 -20 -12 0 -37 -16 -56 -36 -19 -20 -47 -41 -62
-46 -16 -6 -28 -16 -28 -24 0 -8 -8 -14 -17 -14 -18 0 -143 -123 -143 -141 0
-6 -20 -38 -45 -70 -25 -33 -45 -64 -45 -70 0 -5 -11 -21 -25 -35 -14 -14 -25
-33 -24 -42 2 -10 -7 -33 -19 -52 -12 -19 -22 -51 -22 -71 0 -20 -6 -42 -13
-48 -8 -6 -14 -30 -15 -53 -1 -54 -9 -90 -20 -97 -19 -13 -33 -84 -32 -163 1
-46 1 -159 1 -253 -1 -149 2 -174 19 -210 11 -23 22 -64 24 -92 3 -28 12 -65
20 -82 9 -16 16 -38 16 -48 0 -10 9 -36 20 -58 11 -22 20 -47 20 -56 0 -10 6
-24 14 -31 7 -8 23 -33 35 -56 12 -23 35 -55 51 -72 17 -17 30 -36 30 -44 0
-15 173 -196 189 -196 6 0 11 -4 11 -10 0 -5 16 -16 35 -24 19 -8 38 -22 41
-31 3 -8 11 -15 18 -15 6 0 22 -9 36 -20 14 -11 33 -20 43 -20 9 0 17 -4 17
-8 0 -13 47 -32 80 -32 16 0 35 -6 42 -13 7 -8 44 -16 81 -19 37 -3 73 -11 81
-17 37 -31 319 -36 378 -6 18 9 60 19 93 22 33 3 67 12 76 19 8 8 31 14 50 14
22 0 44 9 63 25 16 14 32 25 35 26 31 4 46 10 49 18 2 6 9 11 17 11 7 0 19 7
26 17 8 9 29 22 47 30 17 7 32 18 32 23 0 6 5 10 11 10 17 0 164 152 184 190
10 19 29 48 42 64 29 35 133 246 133 270 0 10 5 26 10 37 6 11 15 56 19 102 5
45 17 102 27 127 31 78 27 482 -6 525 -4 6 -10 41 -14 78 -4 38 -13 79 -20 90
-8 12 -16 41 -20 65 -3 23 -15 51 -26 62 -11 11 -20 29 -20 39 0 11 -4 22 -9
26 -5 3 -13 20 -16 37 -4 18 -18 40 -31 51 -13 10 -24 25 -24 32 0 8 -8 27
-18 42 -15 25 -123 144 -162 180 -81 75 -115 103 -124 103 -6 0 -17 9 -24 20
-7 11 -21 20 -31 20 -10 0 -24 6 -30 14 -7 8 -27 18 -44 22 -18 3 -43 15 -56
25 -13 11 -38 19 -55 19 -17 0 -40 6 -51 14 -11 7 -62 17 -115 21 -52 3 -102
11 -111 16 -23 12 -169 11 -191 -1z m244 -311 c37 -11 83 -19 101 -19 20 0 39
-8 50 -20 9 -11 24 -20 33 -20 9 0 27 -9 41 -20 14 -11 32 -20 40 -20 20 0
178 -161 200 -203 10 -19 33 -63 51 -97 17 -34 32 -68 32 -75 0 -7 7 -18 15
-25 8 -7 15 -25 15 -41 0 -15 9 -52 19 -81 23 -65 28 -99 37 -253 7 -123 -9
-351 -27 -386 -5 -11 -13 -28 -19 -39 -5 -11 -10 -31 -10 -45 0 -14 -4 -33 -9
-43 -6 -9 -17 -38 -27 -64 -9 -27 -20 -48 -23 -48 -4 0 -16 -19 -26 -42 -21
-48 -204 -238 -229 -238 -9 0 -21 -9 -28 -20 -7 -11 -18 -20 -24 -20 -6 0 -22
-9 -36 -19 -14 -11 -47 -25 -74 -32 -27 -6 -57 -16 -67 -21 -10 -5 -93 -9
-185 -9 -147 1 -173 3 -207 21 -22 11 -52 20 -67 20 -17 0 -31 7 -38 20 -6 11
-21 20 -33 20 -43 0 -265 214 -297 286 -10 23 -23 45 -29 48 -6 4 -11 18 -11
32 0 13 -4 24 -9 24 -5 0 -12 8 -14 18 -23 85 -32 112 -38 112 -11 0 -19 46
-23 142 -3 48 -10 96 -15 107 -14 25 -14 196 -1 221 6 11 11 50 11 87 1 38 5
79 9 93 5 14 14 46 21 73 7 26 17 47 21 47 4 0 8 8 8 19 0 23 45 127 59 136 6
3 11 15 11 26 0 11 21 41 48 68 26 26 59 61 73 77 42 49 111 104 129 104 9 0
25 9 35 20 10 11 26 20 36 20 10 0 35 11 55 25 22 15 51 25 73 25 20 0 56 7
81 15 60 19 180 16 262 -6z"/>
<path d="M17370 4748 c-25 -5 -73 -7 -106 -5 -90 6 -99 -4 -101 -111 -7 -279
-9 -338 -15 -347 -10 -16 -10 -1346 0 -1359 17 -21 20 -55 6 -73 -13 -17 -15
-17 -34 7 -11 14 -20 32 -20 41 0 9 -7 19 -15 23 -8 3 -15 12 -15 21 0 8 -4
15 -9 15 -5 0 -17 17 -27 38 -9 20 -35 55 -56 77 -21 22 -38 47 -38 56 0 8
-11 25 -25 37 -14 12 -25 27 -25 33 0 6 -13 27 -30 46 -16 18 -30 40 -30 48 0
8 -4 15 -10 15 -5 0 -10 6 -10 14 0 8 -13 24 -30 36 -18 13 -30 30 -30 44 0
13 -16 40 -36 60 -20 21 -47 57 -59 82 -12 24 -34 54 -49 65 -15 12 -39 45
-52 74 -14 28 -40 67 -59 85 -19 19 -35 39 -35 46 0 11 -40 66 -85 117 -14 15
-25 33 -25 40 0 7 -16 31 -36 53 -20 21 -43 55 -51 74 -9 19 -37 59 -64 88
-27 30 -49 59 -49 65 0 7 -18 32 -40 57 -22 24 -40 50 -40 57 0 7 -27 44 -60
82 -33 39 -60 76 -60 84 0 7 -14 26 -31 43 -17 16 -42 52 -56 80 -40 84 -58
92 -209 93 -119 1 -132 0 -152 -20 l-23 -21 3 -1203 c2 -662 6 -1207 10 -1211
12 -11 205 -13 251 -2 23 6 50 10 59 10 17 -1 17 48 13 836 -3 460 -7 876 -10
924 -3 48 -1 89 4 93 14 8 67 -46 74 -75 3 -14 25 -45 47 -69 22 -24 47 -59
56 -79 8 -19 35 -54 59 -78 25 -23 45 -49 45 -57 0 -13 19 -39 80 -114 6 -7
10 -17 10 -23 0 -5 4 -10 9 -10 5 0 12 -8 15 -18 3 -10 24 -37 46 -61 22 -23
40 -50 40 -60 0 -9 18 -36 40 -60 22 -23 40 -49 40 -56 0 -7 16 -30 36 -51 19
-22 44 -58 54 -81 10 -23 31 -52 45 -65 14 -12 35 -41 47 -64 11 -24 34 -57
50 -74 16 -18 37 -49 48 -69 10 -21 26 -44 36 -52 9 -7 39 -48 67 -89 27 -41
55 -79 63 -83 8 -4 26 -31 39 -58 14 -27 44 -68 65 -91 22 -22 40 -48 40 -57
0 -10 12 -28 26 -42 14 -13 39 -47 55 -74 16 -28 42 -64 59 -80 16 -16 30 -34
30 -42 0 -27 45 -36 180 -37 74 0 143 2 152 6 16 7 17 82 17 1215 0 664 -3
1213 -7 1220 -13 21 -56 30 -102 21z"/>
<path d="M18108 4752 c-15 -2 -37 -15 -48 -29 -20 -25 -20 -37 -20 -1212 0
-932 3 -1191 13 -1204 11 -15 75 -17 759 -21 562 -3 750 -2 762 7 12 9 17 37
20 129 4 131 -3 151 -50 150 -78 -2 -911 -4 -994 -2 -52 1 -111 -1 -131 -5
-62 -12 -61 -18 -60 401 1 232 6 384 12 396 8 15 17 17 42 13 18 -4 256 -7
530 -8 406 -2 501 0 510 11 12 15 30 256 21 285 -5 17 -36 17 -551 16 -353 -1
-548 2 -555 9 -13 13 -11 733 3 747 17 17 206 21 669 16 47 0 103 0 125 0 22
1 113 2 202 2 115 2 166 6 175 15 20 20 21 230 1 261 -14 22 -19 23 -77 17
-33 -4 -78 -7 -98 -6 -20 0 -39 -4 -43 -10 -4 -7 -12 -7 -26 0 -13 7 -208 11
-571 11 -304 1 -561 4 -573 8 -11 4 -32 5 -47 3z"/>
</g></g>
</g>
  </g>
</svg>
